<svg xmlns="http://www.w3.org/2000/svg" xml:space="preserve" width="117" height="48" style="enable-background:new 0 0 117 48"><style>.st0{fill:#fff}</style><path d="M36.5 18.1c.2.2.3.3.5.4l-.3.3c0 .1 0 .3.1.5-.2.1-.3 0-.3-.2s0-.3-.1-.5c-.2-.2-.1-.4.1-.5zm.3 1.5.4.4c.1.1.1.2.1.4-.1.2-.1.3-.1.5-.4-.2-.4-.5-.4-1.3zm-5-1.2h.4c0 .1-.1.2-.1.3-.1-.1-.2-.1-.3-.3zM57.8 0H59v28.2h-1.2V0zM54 .2c0 .1.1.1.1.2 0 0-.1 0-.1.1 0-.1-.1-.1 0-.3-.1.1 0 .1 0 0zm-13.4 16v.4c-.2-.2-.2-.2 0-.4zm-2.4-.4v-.2s.1 0 0 .2c.1-.2.1-.1 0 0zm-.2-2.7c0-.2 0-.4-.1-.6.2-.1.3 0 .4.1 0 .1.1.1.1.2 0 .3-.2.3-.4.3z" class="st0"/><path d="M54.5 1.2c0-.4-.1-.5-.7-.6-.1-.2-.1-.3-.2-.4-.5 0-.9-.1-1.3-.1-.1 0-.1.1-.3.2-.1-.1-.1-.2-.2-.3-.3.1-.5.1-.8.1-.2 0-.5-.1-.8-.1.1.2.2.3.2.4-.3.1-.5.1-.6-.1-.2-.2-.4-.3-.7-.3h-1c-.2 0-.3.1-.5.1-.2.1-.4.2-.7.2-.2 0-.3.1-.4.3 0 .2-.1.4-.2.7 0 .3-.3.6-.1 1 0 0 0 .1-.1.2-.5.4-.4 1.1-.7 1.6v.2c0 .4 0 .8-.3 1.1-.1.1-.1.2-.1.3 0 .9 0 2-.4 2.8-.1.3-.2.6-.3.8-.3.5-.4 1.1-.3 1.5-.1.3-.3.5-.4.8s-.2.5-.2.8c.1.1.1.2.2.3-.2.2-.4.3-.6.5.4.2.3.4.1.6-.1.2-.2.4-.2.6.2.1.3.2.5.3v.1c-.2 0-.4 0-.5-.1-.2.3-.1.7-.4 1l-.2-.2c-.1.1-.2.1-.3.2-.2-.4-.6-.7-.6-1.1 0-.1-.1-.2-.1-.3l-.3-.6c0-.1-.1-.2 0-.3.1-.2 0-.4-.1-.6-.1-.2-.1-.3-.2-.5-.2 0-.3-.1-.3-.3.1-.1.2-.1.2-.2 0-.4-.1-.8-.1-1.1-.1-.3-.2-.5-.4-.9-.1-.2-.5-.2-.5-.7.2.1.3.2.5.3 0-.2-.1-.3-.1-.4 0-.1-.2-.2-.3-.4-.1-.2-.3-.3-.4-.5.3-.1.3-.1.4-.2-.4-.1-.7 0-1.1-.2 0-.2 0-.4.2-.6.2.1.2.3.2.4.1 0 .3-.1.4-.1.1-.6 0-.8-.2-1.1-.2 0-.4.1-.6.1-.1-.2.1-.3.2-.4.2-.2.2-.3 0-.5l-.1-.1c0-.5-.1-.9-.4-1.1.2-.5-.2-.9-.1-1.3-.3-.1-.4-.2-.4-.5s-.1-.6-.1-.8c-.1-.4-.2-.7-.5-.9-.1-.1-.2-.2-.3-.4h-.4c-.1-.1-.2-.3-.3-.4h-1.9c-.4 0-.9 0-1.2.1-.2 0-.4 0-.6-.1h-.1c-.2 0-.5.1-.7.1-.7.2-1.2.6-1.3 1.2-.1.5-.3.9-.5 1.3v.2c.1.3 0 .5-.1.7-.2.4-.4.8-.3 1.2 0 .1-.1.2-.1.3-.3.5-.5 1.1-.7 1.6-.3.9-.4 1.8-.8 2.7-.1.1 0 .3 0 .4-.1.2-.3.5-.4.7-.2.4-.4.9-.5 1.2l-.3.9c-.1.3 0 .8-.3 1 .1.4-.1.7-.3 1-.1.1-.1.3-.2.5 0 .1-.1.2-.1.4-.2-.1-.3.1-.5.2h-.1c0-.1-.1-.2-.1-.3h.3c-.1-.1-.1-.3-.1-.3-.3-.2-.3-.4-.3-.7 0-.2-.1-.3-.1-.5-.2-.1-.3-.4-.3-.6 0-.2-.1-.5-.2-.7-.1-.2-.3-.4-.2-.6 0 0 0-.1-.1-.1-.1-.1-.1-.2-.2-.4-.2-.8-.4-1.4-.6-2.2-.2-1-.6-1.9-.9-2.9-.1-.2-.1-.4-.1-.6s0-.4-.2-.6l-.6-.9c-.1 0-.2-.1-.4-.1.1-.2.1-.2.3-.2.1 0 .2.1.3.1 0-.3 0-.6-.4-.7 0-.3.1-.6-.1-.8-.1-.1-.2-.2-.2-.4v-.4c.1-.1.1-.3.2-.4.1-.4-.3-.6-.2-1-.5 0-.9.1-1.2.1-.2-.2-.3-.3-.5-.4l-.3.4c-.2.2-.3.2-.5 0 0 0-.1-.1 0-.1-.4 0-.6-.1-.9-.1-.2.2-.4.5-.7.3V.2h-.3c-.1 0-.2.1-.3.2-.3.3-.4.3-.7 0-.2-.1-.4-.2-.6-.2-.1 0-.2.1-.3.1-.1 0-.2-.1-.3-.1-.2.1-.6 0-.7.4.2 0 .3.1.5.1l-.3.6c0 .1-.1.3 0 .4.3.8.4 1.5.6 2.3.1.2.1.5.3.5 0 .2 0 .4.1.6 0 .1.1.2.1.2-.1.4.1.7.3.9.1.2.3.4.2.7v.2c.2.4.2.9.6 1.1l.2-.2c0 .2.1.3.3.3.1.1.3.1.4.2-.1.1-.2.1-.2.1-.2 0-.3-.1-.5 0-.1 0-.2.1-.2.1.1.3.1.7.3 1 .1-.2.2-.3.3-.4.1.2.1.3.2.4-.1.2-.3.4-.4.5l.3.6c.4.1.4.1.3.6 0 .2-.1.4 0 .5.2.3.3.7.3 1.1 0 .1.1.2.1.3s.1.2.1.3c.1.5.3 1 .5 1.3-.2.2-.2.3-.1.5.2.5.5.9.7 1.4-.1 0-.2.1-.2.1.1.1.1.2.1.3.3.2.2.4.3.7 0 .5-.1.5.5.7 0 0 .1 0 .1.1-.1.1-.2.1-.4.2.1.1.1.2.2.4.1.1.2.2.1.3-.1.3 0 .6.1.9 0 .1.1.2.1.3-.1.6.1 1.1.4 1.5 0 .1.1.2.1.3.1.3.2.5.3.8.1.2.3.5.1.7V24c.1.3.3.6.4.9 0 0-.1.1-.1.3.1.1.2.3.4.5v.3h.1c.1 0 .2.1.3.1 0 .1-.1.2-.1.3 0 .1-.1.1-.2.2.2.2.4.3.5.5s.1.4.1.7c.4 0 .7.4 1.1.3l.1.1c.3.2.7.5 1.1.3.3 0 .5 0 .7-.3.4 0 .8.4 1.2.3.1-.2.1-.5.4-.5 0 .2.1.4.1.5h.5c0-.1.1-.2.1-.4.1.2.2.3.2.4.9.1 1.2 0 1.6-.3 0-.1 0-.2-.1-.4.2.1.4.1.7.2.3-.8.8-1.5.8-2.4-.2 0-.3-.1-.4-.1.1-.4.3-.3.5-.3 0-.1 0-.3.1-.3.2-.2.4-.3.3-.6.3-.2.3-.6.2-.9 0-.3.1-.6.4-.8 0-.2-.1-.5-.1-.7.1 0 .2-.1.4-.1-.1-.2-.2-.3-.2-.5.1-.1.1-.2.2-.2.2-.2.3-.4.3-.7 0-.5 0-.9-.2-1.3.1-.1.2-.1.3-.2.1 0 .2-.1.2-.3-.1-.1-.2-.1-.3-.3.1-.1.2-.2.3-.2.3-.1.3-.3.3-.6v-.2c.2-.1.3-.1.4-.2V17c-.1-.1-.3-.2-.3-.4s.2-.4.4-.5c.1 0 .2-.1.4-.1.1 0 .2-.1.2-.2.2-.4.3-.8-.1-1.1v-.1h.5c0-.3.1-.6.1-.9.5-.1.4-.5.6-.9.2.1.4.2.5.3.2.2.4.4.7.3v1c.2.1.4.1.6.2.3.1.4.2.2.6-.1 0-.2-.1-.3-.1v.1c.2.2.4.4.6.7-.1.1-.2.1-.3.1 0 .4.1.7.4.9.2-.2-.1-.4 0-.6.1 0 .2-.1.4-.2 0 .5.1 1 .1 1.3h.2c.3 0 .5.2.7.5.1.1.1.3 0 .4 0 .1-.2.1-.3.1h-.2c-.2.7.4.8.6 1.1v.5c0 .1.1.2.1.4-.1.1-.2.1-.3.1-.1.1-.1.3-.2.4-.1.1-.1.3-.1.4.1.2.2.4.4.4s.3.1.2.3c-.4.2-.4.3-.2.7l.3.6c.1.4.2.8.4 1.1.1.1.1.2.2.3-.2.4-.2.4.1.7.2.2.4.5.4.8.3.3.5.1.7 0-.2.3-.5.3-.7.5.1.3.1.6.3.8.2-.1.3-.1.4-.2.1-.1.1-.2.2-.3h.1c0 .1-.1.3-.1.4-.2.1-.3.2-.5.3.2.1.3.1.4.1.3 0 .3-.1.5.3.3-.2.5.2.8 0 .2-.1.6.2.8-.1-.1-.3-.2-.6-.1-.7.2.1.3.2.5.3-.1.2-.1.3-.1.4.5.1.6.1.9-.1.2.1.4.1.6.1.7.1 1.2.1 1.9.1.2 0 .4 0 .6-.1.1-.1.3-.1.5-.2.6-.1.7-.3.8-.9 0-.1.1-.2.1-.3 0-.3.1-.5.3-.7.2-.3.3-.6.2-1v-.3c.1-.1.1-.3.2-.4.1-.2.2-.3.1-.6 0-.1 0-.3.1-.3.3-.4.4-.9.4-1.3 0-.1 0-.3.1-.4.2-.2.2-.4.3-.7.1-.5.2-.9.3-1.3 0-.2.1-.4.3-.6.1-.1.1-.2.1-.3l.6-2.7c0-.2.1-.4.2-.5.1-.2.2-.3.1-.5v-.3c.1-.3.2-.6.3-.8.1-.3.2-.6 0-.9.2-.1.3-.1.4-.3.1-.5.3-1 .5-1.4.1-.2 0-.3-.1-.4-.1 0-.1-.1-.2-.2.1-.1.2-.2.3-.2.2-.1.3-.3.4-.6 0-.3 0-.7.3-1 0-.2.1-.3.1-.5-1.2-.4-1-.7-1.2-1.2-.1-.2 0-.3.1-.4l.3-.3-.3-.3c.2 0 .3-.1.4-.1.1-.1.2-.2.1-.3-.1-.3-.2-.5 0-.8.1-.1 0-.2 0-.4 0-.1 0-.2-.1-.3.4 0 .5-.3.5-.6 0-.1 0-.2.1-.3.2-.2.1-.4 0-.6.4-.2.4-.4.1-.7.4-.1.1-.4.3-.6-.1-.2-.3-.3-.3-.5.4 1 .5.8.5.2zm-40 .9c-.1 0-.2-.1-.2-.3.2.2.2.3.2.3zm1.3-.3-.1-.2s.1 0 .1.2c.1-.1 0-.1 0 0zm.8 4.4v.5c-.1 0-.1-.1-.3-.1.1-.2.2-.3.3-.4zm.3 1.1v.3h-.1l.1-.3zm8.3 12.3v.2c-.1.2-.3.2-.4.3v.3c0 .2 0 .3.2.4.1.1.2.1.2.2v.1c-.2 0-.4-.1-.5-.2-.1-.1-.1-.2-.1-.4v-.1c-.2-.3.2-.7.6-.8zm-.5 2.7s-.1.1-.2.1c-.2-.1-.2-.2-.1-.4.1 0 .1.1.2.1.1.1.2.1.1.2zm-.1-4.4v-.4c.3.2.3.4.2.6-.1.1-.2.2-.3.1h-.2c.1 0 .2-.1.3-.3zm-.4 1.2c.1 0 .2.1.4.1-.2.2-.3.4-.4.5 0 0-.1 0-.1-.1s.1-.3.1-.5zm0 2.7c-.3 0-.4-.1-.5-.4 0-.1 0-.2-.1-.3-.1-.1-.3-.2-.3-.1-.2.2-.4.1-.5.1-.3.4-.3.5.3.9.1 0 .3-.1.4-.1h.1c0 .2 0 .4-.1.5-.1.1-.3.1-.5.1-.4-.1-.4-.1-.4-.5 0-.2.1-.5-.2-.7v-.7c.3-.2.3.2.5.4l.6-.3c.4.4.5.8.7 1.1zm-.1.5h-.2v-.1c.1.1.2.1.2.1zm-1 1.2v-.3h.1c.1.1.1.2.2.3-.1-.1-.2 0-.3 0zM22 20.6c0-.2.1-.3.3-.3 0 .2-.1.3-.3.3zm.3-1-.1-.6c0-.2 0-.2.1-.3.1 0 .1 0 .2.1 0 0 .1.1.1.2s-.3.6-.3.6zm.5 0h.4c.1 0 .2.1.3.1-.2.1-.3.2-.4.1-.1 0-.2 0-.3-.2zm.1-1.9s0-.1 0 0l.2-.1v.2c-.1-.1-.1-.1-.2-.1zm.2 1.1c-.1 0-.1 0 0 0-.1-.1-.1-.2.1-.2 0 .1.1.1.1.2-.1-.1-.1-.1-.2 0zM23 17c0-.2.1-.3.2-.3l.1.1c-.2.1-.3.1-.3.2zm.1-2.5c0 .1 0 .1 0 0-.2.2-.2.1-.3-.1l.3.1zm-.1.7c.1.1.1.1 0 .2h-.4c0-.2.1-.3.1-.5l.3.3zm1 2.7c-.1-.1-.2-.1-.3-.1.1 0 .1-.1.2-.1.1.1.1.1.1.2zm-.4-.8s-.1 0 0 0c-.1-.1 0-.2.1-.3h.1c.1.1.1.3.2.5l-.4-.2zm.4-3.5h-.2.2zm-.3.5c.1.1.2.1.3.2-.1 0-.2 0-.3-.2.1.1 0 .1 0 0zm-.3.6c.1-.1.1-.1.2-.1.1.1.1.1.1.2 0 0 0 .1-.1.1h-.2v-.2c0 .1 0 0 0 0zm0 2.5v.2l-.1.1s0-.1-.1-.1l.2-.2zm-.7-2.9c0-.3 0-.6.1-.8.1-.2.3-.3.5-.4v.4c-.3.3-.4.6-.6.8zm0 4c0 .1 0 .1-.1.2-.2.1-.4.1-.6.1 0-.1.1-.1.2-.2s.2-.1.5-.1c0-.1 0 0 0 0zm-.9 0c-.1-.1-.2-.1-.2-.2v-.2h.1c0 .1.1.2.1.4zm0 .5h-.4s0-.1.1-.1c.1-.1.1-.1.3.1zm-.9.8c.2-.1.3-.1.4.1 0 .1.3.3 0 .4-.3.1-.2-.2-.3-.3 0-.1-.1-.2-.1-.2zm-1.7-6.5h-.3c.1-.4.5-.5.7-.8.3.1.5.1.7.2v.1c-.1 0-.3.1-.4.1-.2 0-.4.1-.5.3-.1 0-.1.1-.2.1zm.1.5-.2-.1c0-.1.1-.2.2-.2.1.1.1.2 0 .3zm-.4-2.5s0-.1 0 0c.2-.1.2 0 .3 0 0 0 0 .1-.1.1s-.1 0-.2-.1zm1.4-.8c-.1.1-.1.1-.2.1-.2 0-.3-.1-.5-.2 0 .2-.1.3-.1.5l-.3-.3c.1-.1.1-.2.2-.3 0-.1.1-.2.1-.3.1 0 .1.1.2.1s.1.1.2.1.3.2.4.3zm-.6-2.9c.1 0 .1-.1.2-.1s.3.1.4.2c0 .1-.1.3-.1.4-.1 0-.1 0-.1-.1-.2-.1-.3-.3-.4-.4zm.3 4.3c-.1 0-.2 0-.3-.1-.1 0-.1-.1-.1-.2 0-.3.2-.2.3-.3.1.1.2.3.1.6zm.4 1.8c-.1.3-.3.6-.4.9-.1-.2-.3-.4-.4-.5.2-.5.4-.6.8-.4zm-.1-3.8c.2 0 .2.1.3.3-.2 0-.2 0-.3-.1v-.2zm.1 2.8v-.4c.3 0 .3 0 .3.3-.1.1-.2.1-.3.1zm.2-1.8c.3 0 .4 0 .4.3-.2-.2-.3-.2-.4-.3zm0 3.5s0 .1 0 0c0 .1.1.1 0 0 .1.1.1.1 0 0 0 .1 0 .2-.1.2l-.1-.1c.2 0 .2 0 .2-.1zm.1-1.4c.3 0 .5-.1.7-.5l.4.4c-.2.2-.3.4-.5.6-.1 0-.3 0-.5.1-.1-.2-.1-.4-.1-.6zm1.7-2.5c0 .2-.1.2-.3.2v-.1s.1-.1.3-.1zm-.1 2.2c0 .1-.1.1-.1.2l-.1-.1s.1-.1.2-.1zm-.2 1.4c0 .1-.1.2-.1.3-.1 0-.2 0-.2-.1v-.2c0-.2.1-.3.3-.3v.3zm-.7.9c-.1 0-.2 0-.3-.1v-.1c.1-.2.1-.2.2-.2h.6c0 .3-.2.5-.5.4zm.5.2c-.1.3-.2.6-.4 1-.2-.1-.3-.2-.4-.3-.1-.1-.1-.2 0-.3l.2-.2c.2-.2.2-.2.6-.2-.1 0-.1 0 0 0zm-1 1.6c.1 0 .1 0 0 0 .1 0 .1 0 0 0 .1 0 .1 0 0 0 .1 0 .1 0 0 0l.1.2h-.1c.1 0 .1-.1 0-.2zm.2.4c0 .2-.1.2-.1.3 0-.1-.1-.1-.1-.2l.2-.1zm.9-.8c0-.1-.1-.3-.1-.5.1 0 .2-.1.3 0 .1 0 .1.1.2.1v.2c-.1.2-.3.4-.4.6-.1 0-.1-.1-.2-.1s-.1-.1.2-.3zm.5 1.4c-.4-.5-.4-.8-.2-.9.1.2.2.4.2.7.1 0 0 .1 0 .2zm.1-6.2c0 .2-.1.3-.1.3-.1 0-.1 0-.3-.1.1 0 .3-.1.4-.2zM22 9.6s.1 0 0 0c.1.1.2.1.4.2-.1 0-.2.1-.3.1-.1-.1-.1-.2-.1-.3zm0 1.3c.1 0 .1.1.2.1 0 0 0 .1-.1.1-.1-.1-.1-.1-.1-.2-.1.1-.1.1 0 0-.1.1-.1.1 0 0-.1 0-.1 0 0 0zm-.3-2.8c.1 0 .1 0 .2.1 0 0 0 .1-.1.1-.1-.1-.1-.1-.1-.2-.1 0-.1 0 0 0zm-.3 3.2c.1.2 0 .3-.2.4-.1-.2.1-.3.2-.4zm0-5.6v.2h-.1l.1-.2zm-.3-4c0 .1.1.1.1.2V2c0-.2-.1-.2-.1-.3zm0 10.1s.1.1.2.1c-.1 0-.2.1-.2.1v-.2zm-.2-2c.1 0 .1 0 0 0 .1.1.1.1 0 0 .1.1.1.1 0 0h-.3.3zm-.3-.9c-.2 0-.3-.2-.3-.4h.4c.1 0 .1.1.2.1-.2.2-.2.3-.3.3zm.1-4.3c.1 0 .1 0 0 0 0 .1 0 .2-.1.2l-.1-.1c.1 0 .1 0 .2-.1-.1 0 0 0 0 0zm-.2 1.3c.1.3 0 .5-.1.7h-.1c0-.2-.1-.4-.1-.6.1 0 .2 0 .3-.1zm-.5-.8c0 .1-.1.1-.2.2v-.1c-.1-.1 0-.2.2-.1zm-.4-3.5c.1 0 .1 0 0 0l.1.2s-.1 0-.1.1v-.3zm0 4.4.1.2h-.1V6zM19 8.9c.2-.1.4-.2.5-.3 0-.1-.1-.2-.1-.4h.4c0 .1.1.1 0 .2 0 .1-.2.2-.3.3.1.2.2.3.4.5-.1.1-.2.1-.3.2-.1 0-.2.1-.2.2-.1-.3-.3-.5-.4-.7zm-.1.9c0 .1 0 .1 0 0 0 .1 0 .1 0 0-.6.2-.9 0-.9-.5.5 0 .7.1.9.5zm-.4 1c-.1.1-.2.1-.3.1-.1-.1-.2-.3-.3-.4.1-.1.1-.2.2-.2h.4c-.1.2 0 .3 0 .5zm.1-2.3c0 .1-.1.2-.1.4-.3-.3-.5-.4-.7-.6v-.2s.1-.1.2-.1c0 0 .1 0 .1.1.2.1.3.3.5.4zm-1-3.6c.1 0 .2.1.3.1v.1h-.2c-.1 0-.1-.1-.1-.2zm-.3 5.3c-.1 0-.2-.1-.2-.2 0-.2.2-.3.4-.2.1 0 .1.1.1.1 0 .1 0 .1-.1.2 0 0-.1.1-.2.1zm.1-1.3c-.1 0-.2 0-.4-.1.1-.2.2-.3.3-.3.1 0 .2.1.4.2h.1c-.2.2-.3.2-.4.2zm.4-1.8c.2 0 .4-.1.5-.1 0 .2 0 .3-.2.3H18s-.2 0-.2-.2zm.7 5.6c-.1 0-.1 0-.2-.1 0-.1.1-.1.1-.1.1-.1.1-.2.1-.3v-.1l-.1-.1c-.1-.1-.3-.2-.4-.3-.1-.1-.1-.2-.2-.2h1.1c.1.5.1.6-.2 1.2-.1.1-.1.1-.2 0zm.3 1.3c.1 0 .1-.1.2-.1h.2c.1.2.2.5 0 .7-.3 0-.3-.3-.4-.6zm.4 1.3c.1-.1.2-.1.3-.1 0-.2 0-.3.1-.4.1-.1.2-.1.3-.1-.1.3-.2.7-.4 1.1-.1-.3-.2-.4-.3-.5zm.5 1.4c-.1-.1-.2-.1-.3-.2v-.2c.1 0 .2 0 .3.1.1.1.1.2 0 .3.1-.1.1-.1 0 0 .1-.1 0 0 0 0zm.8 2.9h-.2c.1-.1.1-.1.2 0 0-.1 0-.1 0 0zm-.2-2.4c-.2 0-.3 0-.4.1 0-.4.1-.8.4-1.1-.1-.1-.2-.2-.4-.3 0-.1.1-.1.1-.1.1 0 .2.1.3.1h.1c.1 0 .3 0 .4.2-.2.4-.7.7-.5 1.1zm.2-1.7h-.3c.1-.3.2-.5.3-.8 0 0 .1 0 .1.1 0 0 .1 0 .1.1l.1.1.1.1s0 .1.1.1v.1c0 .1 0 .1.1.2-.4-.1-.5-.1-.6 0zm.5 3c0-.1-.1-.3-.2-.4.4 0 .4.1.2.4zm-.1 2.6v-.6c.1.1.2.1.3.2.2-.1.3-.2.5-.2.3.6.3.7.1 1-.1-.2-.1-.3-.2-.5 0 0-.1 0-.1-.1-.2.1-.4.1-.6.2zm.5.7h.4c0 .2-.1.3-.1.4h-.2c-.1-.1-.2-.1-.1-.4zm.4 3.6c0 .1-.1.2-.1.2h-.3c.1-.1.3-.2.4-.2 0-.1 0 0 0 0zm.2-1s0 .1 0 0c-.2.1-.2 0-.3 0 0 0 0-.1.1-.1s.1 0 .2.1zm-.1-.4c0-.1 0-.2.1-.2h.2c-.1.2-.2.2-.3.2zm.3-1.5c.7.2.6.1.6.5-.2-.2-.5-.1-.6-.5zm.4 2.8c0-.1.1-.1.1-.2 0 0 .1 0 .1.1s-.1.1-.2.1c.1.1.1 0 0 0zm.2 1.9c.1 0 .1 0 0 0 .1 0 .1 0 .2-.1.2 0 .3 0 .4.2-.4.3-.4.2-.6-.1zm.3-2h.2c.2 0 .2.1.2.4l-.4-.4zm.5-1.3c-.1 0-.1 0 0 0-.1 0-.1 0 0 0 .2-.1.3-.1.5-.1 0 .2 0 .3-.1.3s-.2-.1-.4-.2zm.3.9v-.3c.2 0 .3-.1.5.1-.2.1-.4.1-.5.2zm.4 2.3c-.1 0-.2.1-.2.1l-.1-.1.1-.1c.1 0 .1 0 .2.1zm.2-.8s-.1.1-.2.1V26c.3.2.4.3.2.3zm.4-1c-.1 0-.2 0-.2-.1l.2.1c0-.1 0-.1 0 0zm.2-2.8s.1 0 0 0c.2.2.2.4.2.7-.3-.1-.5-.3-.4-.5.1-.1.1-.2.2-.2zm0 1.2v-.3c.1 0 .1.1.1.1 0 .1-.1.2-.1.2zm.3.5c-.1.1-.2.1-.4.2 0-.2 0-.3.1-.4.1-.1.3-.1.4.1l-.1.1c0-.1 0 0 0 0zm14 3c0 .1-.1.1 0 0h-.2v-.1c.1 0 .2.1.2.1zM51 2.4c.2.1.3.2.5.3-.1.3-.3.2-.4.1 0 0-.1 0-.1-.1-.1 0-.1-.1 0-.3zm-1.1-.5h.2c0 .1-.1.2-.2.3-.1 0-.1-.1-.1-.1 0-.1 0-.1.1-.2zm-.2 1.5h.2-.2c.1 0 0 0 0 0zM49 7.3l.3-.3c.1.1.2.3.4.4-.3 0-.4 0-.7-.1zm.4 3c.1.1.2.2 0 .3v-.3zm-.6-8.2c.1.2.2.3.2.6-.2-.1-.3-.1-.3-.2s.1-.2.1-.4zm.1 8.2c-.1-.2-.2-.4-.3-.5.2.1.3.3.3.5zm-.4-9.2c.1.1.1.2.2.2l-.1.1c-.1 0-.1-.1-.1-.1-.1-.1-.1-.2 0-.2zM48 11.9v-.2h.1l-.1.2c.1-.1.1 0 0 0zm-.3-1.3c-.1-.1-.1-.2-.2-.4.4.1.4.1.2.4zm0 4c0 .1 0 .1 0 0 0 .3-.1.3-.3.4-.2-.3-.1-.4.3-.4zm-.1-10.8c-.1.1-.1.2-.1.3-.1-.2-.1-.3.1-.3zm-.1 7.6c.1.1 0 .3-.1.3 0-.1.1-.2.1-.3zm-.3.6c.2.3.1.5-.1.7-.2-.3-.2-.5.1-.7zm-.3 3.5c.1 0 .1-.1.2-.1 0 0 .1 0 .1.1l-.2.2c-.1-.1-.1-.2-.1-.2zm.2-2.3c-.1.3-.2.4-.3.4h-.2v-.5c.2 0 .3.1.5.1zm-.6-3.7c0 .1.1.2.1.3h-.1c0-.1-.1-.2 0-.3zm-.3 1.5c.2-.1.4-.1.6-.2-.1.2-.2.3-.4.3l-.2-.1c0 .1 0 0 0 0zm-.4-.6c0-.1.1-.1 0 0 .1 0 .1.1 0 0 .1.1 0 .1 0 .2v-.2zm0 2.6c0-.1.1-.2.1-.3-.2-.4.1-.7 0-1.1.2-.1.4-.2.6-.2v.2c-.2.2.1.4 0 .5-.1.2-.2.3-.2.5s0 .4-.2.6c-.1 0 0 .2 0 .3 0 .2-.1.4-.2.6-.2-.1-.3-.1-.5-.2.1-.3.3-.6.4-.9zm-.5-1.6c.1 0 .1 0 0 0h.2c.1.1 0 .2-.1.3-.2-.1-.2-.2-.1-.3zm-.5 1.7s.1 0 0 0c.1-.1.1-.1 0 0 .1 0 .2.1.2.1v1c0 .1.1.1.1.2.1 0 .3-.1.4-.1h.2c.2.2.4.2.6.1.1-.2.2-.4.3-.5.2 0 .3.1.3.3 0 .2 0 .3-.2.4l-.6.3c-.2 0-.4 0-.6-.1-.3-.2-.5-.4-.8-.6l.1-1.1zm1.8 4.4c-.2-.1-.2-.2 0-.3v.3zM44.8 15c0 .1.1.1.1.2l-.1.1c0-.1-.1-.1 0-.3-.1.1 0 .1 0 0zm-.2 1.3c.2-.1.3-.3.5-.4.1-.1.2-.1.3-.1h1c.1.2.1.3.1.4 0 .1-.2.2-.4.3-.2-.1-.3-.3-.5-.4-.1.1-.2.3-.2.4-.1.1-.1.2-.2.3-.3-.2-.4-.4-.6-.5zm1.1 1.9c-.1 0-.1-.1 0 0-.2-.2-.2-.3-.2-.5.1 0 .2-.1.2-.1.2.1.2.4 0 .6zm-.8 1.9.2-.2.1.1c-.1.1-.2.1-.3.1zm-.7-7.2v-.2h.1c-.1.1-.1.2-.1.2zm.2 2.6s.1 0 0 0c.1 0 .1 0 0 0 .1 0 .1 0 0 0 .1 0 .1 0 0 0-.2.2-.3.2-.4.2-.1 0-.2-.1-.3-.2.4-.1.5-.1.7 0zm-.5 6.7c-.1.1-.1 0-.2 0v-.1c.1.1.1.1.2.1zm-.4-3.5s0-.1 0 0c.2-.1.2 0 .3 0v.1c-.1-.1-.2-.1-.3-.1zm.2 2.2c.1 0 .1 0 .2.1-.1 0-.1.1-.2.1v-.2zm-.4-3.1c.1-.2.2-.3.4-.3s.3.1.3.3h-.7zm.1 1.5c-.1-.2-.1-.3-.2-.4.2.1.3.2.2.4zm.4-2.2h.3c.2 0 .3.1.3.3v.1c-.2-.2-.4-.3-.6-.4zm.1 1.9c.1-.1.3-.1.4-.1h.1c.1 0 .1.2 0 .2s-.2.1-.3.1c-.1 0-.2 0-.2-.2 0 .1 0 .1 0 0zm0-2.5c0 .2-.1.3-.1.4h-.5v-.1l.6-.3zm-.5 3.2h.2c0 .1 0 .2-.1.2-.1.1-.2.1-.3.1v-.1l.2-.2zm-2-4.6c.1 0 .1.1 0 0 0 .2 0 .3-.1.4-.1 0-.2 0-.4-.1.2-.2.4-.2.5-.3zm-.4-.3v.4c-.1.2-.2.4-.5.5.1-.2.1-.3.1-.5 0 0-.1 0-.1-.1-.3-.1-.6 0-.9-.1.1-.2.2-.4.4-.7.1.1.2.2.2.4.1-.1.2-.1.3-.2.1.1.1.2.2.4 0 0 .2-.1.3-.1zm-1.3.6c0 .5-.1 1-.1 1.4h-.3c0-.5.1-1 .1-1.4.1.1.1 0 .3 0zm-1.4-2.1c0 .3.1.6.1.8-.2.1-.3 0-.3-.1v-.2c-.1-.1-.2-.1-.3-.1v-.4c-.2 0-.3.4-.6.2.1-.3.2-.6.4-1 0-.1-.3-.2-.4-.3V12c.3-.1.5-.1.8 0 .3.2.7.4 1.2.2 0 .2 0 .4.1.6-.6-.1-.8.3-1 .5zm.7.6c-.1.2-.1.3-.3.3h-.1c0-.2.1-.2.2-.3h.2zm-1.1.7c-.2 0-.3 0-.3-.2.2 0 .3 0 .4-.1v.1c.1.1 0 .2-.1.2zm-.8-2.7c0 .1 0 .1 0 0-.2.1-.3.2-.4 0-.1-.1-.2-.2-.2-.3-.3 0-.6.1-.8.1 0-.2-.1-.4-.1-.6l.1-.1c.1 0 .1-.1.2-.1s.1-.1.2-.1c-.1.3-.2.4-.3.6 0 0 .1 0 .1.1h.1c.2 0 .2-.2.3-.2.3.1.2.5.5.5h.1c.2-.1.2 0 .2.1zm-1 1.1c0-.2 0-.4-.1-.7h.6c0 .3 0 .4-.1.6l-.1.1h-.3c.1 0 .1 0 0 0zm-.9-2.5v-.3h.1l-.1.3c.1-.1.1-.1 0 0 .1 0 .1 0 0 0zm.3 1.4c.2 0 .2.1.3.2 0 .2 0 .3-.2.4-.2-.2-.3-.4-.1-.6zm0-3.9c.2 0 .4.1.5.1V9c.4 0 .4-.2.4-.4.1-.1.1-.1.2-.1h.4c.1 0 .1-.1.2-.1-.1-.2-.3-.1-.4-.2 0-.1 0-.2.1-.3.2.1.3.1.4.2.4.2.4.2.3.7h-.9c-.2.3-.2.5-.1.8-.3.3-.4.5-.1.9-.2 0-.3 0-.4-.2-.2-.4-.1-.6.1-.8-.1-.4-.1-.4-.5-.7-.1-.3-.1-.6-.2-.8zm1.8-1.6c0 .2 0 .4-.1.6-.2-.1-.3-.3-.2-.5.1-.1.1-.1.3-.1-.1-.1-.1-.1 0 0-.1-.1-.1 0 0 0zm-.1 3.8c-.1 0-.2 0-.3-.1-.1-.1-.1-.1-.1-.2 0-.2.2-.4.3-.4.1 0 .2.1.3.2 0 .1.1.1.1.2 0 .2-.1.3-.3.3zm-.3.9c.1-.2.1-.5.2-.7.1 0 .2.1.3.1.1 0 .2.1.3.2-.1.2-.1.4-.2.6-.3-.2-.4-.2-.6-.2zm2.6-.9c-.3 0-.4-.1-.4-.2v-.1l.1-.1c.1.1.2.3.3.4zm-.3 3c.2-.1.3-.1.4.1 0 .1 0 .2-.1.2-.3.1-.3-.1-.3-.3zm.3-.6c.1 0 .2.1.2.2l-.1.1c-.1 0-.1-.1-.1-.1-.1-.2 0-.2 0-.2zm.1 1.1c-.1-.3 0-.3.2-.4 0 0 .1 0 .1.1l-.3.3zm.6.1c0 .1-.1.3-.1.5-.2-.1-.3-.2-.4-.3.1-.1.2-.2.3-.2h.2zm.3-1.3h-.6c-.3 0-.4-.1-.5-.5v-.2c.1.2.2.3.2.3h.1c.2 0 .3-.2.4-.2s.1 0 .2.1c.1.2.1.3.2.5zm-.4-2.4c.1.1.1.3.2.4h-.5c0-.2-.1-.4-.1-.7.1 0 .3.1.4.3zm-.6-1.6c0 .2.1.4.1.7-.4 0-.4-.5-.8-.5.3-.1.5-.2.7-.2zm-.6 1.8.1.4c-.1 0-.2.1-.3.1-.2-.1-.5-.2-.7-.2 0-.4 0-.5.4-.5v.4c.2 0 .3-.1.5-.2zM38.2 8s.1-.1.2 0c.1 0 .1.2.2.3-.1.1-.2.1-.2.1-.1 0-.2 0-.3-.1 0-.1.1-.2.1-.3 0 .1 0 0 0 0zm.1 1.1c0 .2.1.4.1.5-.3 0-.4-.2-.4-.3-.1-.1 0-.2.3-.2zm-.1 2.2c.3 0 .5 0 .7.3l-.3.3c-.4 0-.3-.3-.4-.6-.2.1-.3.2-.4.2-.1-.2-.1-.3.1-.4.1-.1.2.1.3.2zm-.3-7.8c0 .2-.1.3-.3.3 0-.2.1-.3.3-.3zm-.3 1.7c-.1 0-.1.1 0 0h-.2s0-.1.2 0c-.1-.1-.1 0 0 0zm-.3-3.3c.1.1.1.2.2.4-.1 0-.1.1-.2.1 0 0-.1 0-.1-.1-.1-.2-.1-.4.1-.4zm-.4 1.4c.2-.1.3-.1.5.2-.1.1-.3.1-.5.2-.1-.3-.2-.3 0-.4zm.1.9c-.1.2-.2.3-.4.2 0-.2.2-.3.4-.2zm-.5-.7s.1.1.2.1c0 0-.1 0-.1.1l-.1-.2c-.1 0 0 0 0 0zm-.2 1.4c.2.1.3.2.3.3v.2c-.1 0-.3-.1-.3-.1v-.4zM36 3.7c.1 0 .1 0 0 0 .1 0 .2.1.2.2l-.2-.2zm-.1 3.1h.2c.2.3.5.2.8.1h.1c0 .1 0 .3-.1.4.1 0 .2.1.2.2s0 .1-.1.3c-.2 0-.4-.2-.5-.4 0-.1-.1-.1-.1-.2h-.5v-.4zm.1.7c-.1.2-.2.2-.3.1v-.1c.1 0 .2-.1.3 0zm-.9-.7s0 .1 0 0c-.1-.3-.1-.4 0-.5.1-.1.3 0 .5.1-.1.3-.3.4-.5.4zm.4-1.5c-.1.2-.1.3-.2.6-.1-.2-.2-.3-.3-.4.1-.1.3-.1.5-.2zm-.6 4c0-.1 0-.1 0 0 0-.1.1-.2.1-.2h.4c-.1.1-.3.2-.5.2 0 .1 0 0 0 0zm-.1-.9c0 .1-.1.2-.3.4-.1-.3-.1-.4.3-.6v.2zM34.2 3s.1 0 0 0c0-.2.1-.3.3-.2.1 0 .1.1.1.2v.1c-.1.1-.2.1-.4-.1.1 0 .1 0 0 0 .1 0 .1 0 0 0 .1 0 0 0 0 0zm-.4 5.6c0 .1-.1.2-.2.2l.2-.2zm-.1-6.8c.1.1.1.1.1.3-.1 0-.2 0-.1-.3-.1 0-.1 0 0 0zm-.2 5.6h.2c0 .1-.1.2-.2.3v-.3zm-.1-1.1c-.1.1-.1.2-.3.2s-.2-.2-.2-.4c.2.1.3.1.5.2zm-.2 4.6c-.1 0-.2.1-.2.1v-.1s.1-.1.2 0c0-.1 0 0 0 0zM32.9 4h.2c.1 0 .1.1.1.2-.1.1-.2.2-.3.1 0 0-.1 0-.1-.1l.1-.2zm-.9 9.7s.1 0 0 0c0 .2-.1.4-.2.6-.1-.3-.4-.4-.3-.8 0 0 .1 0 .1.1.2 0 .3.1.4.1zm-.1-3.2c.2 0 .3.2.4.4-.1 0-.2.1-.3 0 0 0-.1 0-.1-.1.1 0 0-.1 0-.3zm-.2 2.6c-.1.1-.1.2-.1.2-.1.1-.2.2-.4.1.1-.2.1-.4.2-.6.1.1.2.1.2.1.1.1.1.1.1.2zm0-4.4s0-.1 0 0c0-.1 0-.1 0 0 0-.1 0-.1 0 0 .2 0 .2.1.1.2h-.1c-.1-.1-.1-.1 0-.2-.1 0-.1 0 0 0zm0 3.4c-.1.2-.1.2-.2.2s-.2-.1-.4-.2c0 0 0-.1.1-.1.1-.1.2 0 .2 0 .1 0 .2.1.3.1zm-.4-1.1c.2.1.1.3 0 .4-.2-.2-.2-.3 0-.4zm-.1 4.8c.4.3.4.5.2.8 0-.3-.4-.5-.2-.8zm-.3-1.4s.1 0 0 0c.2.2.2.3.1.4-.2 0-.2-.1-.1-.4-.1.1-.1.1 0 0zm-.3-2c.1 0 .1 0 0 0v.4c-.2 0-.2-.1-.2-.2 0-.2.2-.2.2-.2zm-.4 4.4c.1 0 .2 0 .2.1 0 0 0 .1-.1.1s-.2 0-.1-.2c0 .1 0 0 0 0zm-.2-6.5c0 .1.1.1.1.2H30v-.2zm.1 2.2c0 .1 0 .2.1.3-.2 0-.2 0-.2-.2-.1-.1 0-.1.1-.1zm-.1 4.9c.1 0 .1 0 .2.1 0 0 .1.1.1.2v.3c-.1 0-.2.1-.3.1 0 .3.1.6 0 .9l-.1-.1v-1.1c0-.3.1-.4.1-.4zm-.8-7.9c.2-.1.3 0 .3.2-.2 0-.2-.1-.3-.2zm0 7.5s.1 0 .2-.1c0 .1 0 .2-.1.3h-.1c-.1-.1-.1-.2 0-.2zm-.3 1.4c0 .1 0 .1 0 0-.1-.2-.1-.3.2-.5.1.2.1.3.1.3 0 .1-.1.2-.3.2zm.1-2.5c-.1.3-.3.3-.5.4-.1-.1-.1-.2-.1-.4l.1-.1c.2-.1.3-.2.5.1zm-.8 1.5c.2 0 .3.1.3.2l-.1.1c-.1-.1-.1-.2-.2-.3zm.5 2.1c0 .1 0 .1 0 0 0 .1 0 .1 0 0 .1.2.1.4-.1.4 0 0-.1 0-.1-.1v-.1c-.1 0 0-.1.2-.2zm-.4-7.2s.1 0 .2.1c-.1 0-.1.1-.1.1h-.1c-.1-.1-.1-.1 0-.2zm-.2 2.2c0-.1.1-.1 0 0 .1-.1.1-.1 0 0 .1 0 .1 0 0 0 .1.1.1.2 0 .2v-.2zm0 6c-.2 0-.3-.1-.3-.3v-.1c.2 0 .3.2.3.4zm-1.2.4c-.1.1-.1.1-.2.3 0-.3 0-.4.2-.3 0-.1 0-.1 0 0 0-.1 0-.1 0 0 0-.1 0-.1 0 0 0-.1 0 0 0 0zm-.1 2.2c.5-.1.9.1 1.2.5.1.1.2.3.2.5H28c-.4-.3-.7-.7-1.2-1zm.6-2.7c.1-.1.1-.1 0 0 .1-.1.2 0 .2 0h-.2c.1 0 .1 0 0 0zm.3 2.4-.1-.3c.3-.1.3-.1.4.2-.2.1-.3.1-.3.1zm.2-4c0 .1 0 .1 0 0 .3.3.2.6.2.8-.3-.1-.4-.3-.3-.6 0 0 0-.1.1-.2-.1.1-.1.1 0 0zm-.5-2.4c.3.1.2.5.4.7-.3-.1-.5-.4-.4-.7zM27 18c.5-.2.7-.1.9.3h-.5c-.3 0-.4-.1-.4-.3zm.1 1.1h-.4c-.1-.2-.2-.4-.2-.6.4 0 .5.3.6.6zm-.6-2.7.3-.3c.1.4-.1.4-.3.3.1.1.1.1 0 0 .1.1.1.1 0 0 .1.1.1.1 0 0zm-1 .4c.3 0 .3.2.5.3.1.1.3.1.5.1-.2.1-.3.2-.4.3-.2-.3-.5-.4-.6-.7zm.4 6c.1 0 .1-.1.2-.1 0 0 .1 0 .1.1 0 0 0 .2-.1.2s-.2-.1-.2-.2zm-.1-.5c0-.4.1-.5.6-.5-.1.2-.1.3-.1.5h-.5zm.4-1.8c.1.1.2.2.2.3h-.1c-.1-.1-.1-.2-.1-.3zM26 27c-.2 0-.3 0-.3-.2 0-.1 0-.2.1-.3 0-.2.1-.3 0-.5 0-.1 0-.2.1-.3h.2c.1.1.1.2.1.3-.1.3-.2.7-.2 1zm0-3.1h-.5c.2-.2 0-.5.2-.7h.1c.1.2.3.3.4.5 0 .1-.1.2-.2.2zm.5 1c.1.2.1.3 0 .4 0 0-.1.1-.2.1.1-.2.2-.4-.1-.4v-.1c.1-.3.1-.6.2-.9h.4l-.3.9zm.5 1.6c-.2-.2-.1-.3.1-.4.1.2 0 .3-.1.4zm.4-1.3c0 .2-.2.3-.4.3v-.1c.2 0 .3-.1.4-.2zm.3-.2c-.1-.2-.1-.3.2-.8.1.4 0 .6-.2.8zm.3 1v-.2.2c.1-.1.1-.1 0 0 .1-.1.1-.1 0 0 .1 0 0 0 0 0zm.3-4.1c-.2 0-.3-.2-.3-.4s0-.4-.1-.6c.1-.1.3-.2.5-.3.1.1.2.2.3.2l-.1.2h-.1c-.1.1-.1.2-.1.3-.1.3 0 .4-.1.6zm.5 2.4c-.1-.1 0 0 0 0zm0-.4c-.1.1-.2.1-.2.1v-.2l.2.1zm0-4.5c-.1-.2 0-.3.2-.4.2-.1.3-.1.5.1.1.1.1.2.2.2.1.1.1.2.2.3-.1.3-.1.6-.5.8 0-.1.1-.3.1-.4.1-.2.1-.3 0-.4-.1-.1-.2-.2-.5-.2h-.2zm.3 4.2c-.2 0-.3-.1-.3-.2l.1-.1c.2 0 .2.1.2.3zm0-2.3c.1-.1.3-.2.4-.3 0 .1.1.2 0 .2 0 .2-.2.4-.3.6v-.1c.1-.1 0-.2-.1-.4.1 0 .1 0 0 0zm.3 3.5c-.1 0-.1-.1-.2-.1l.1-.1c.1 0 .1.1.1.2 0-.1 0 0 0 0zm-.1-2.4c.2-.1.2-.1.3-.1s.2.1.3.1v.5c-.2-.2-.4-.3-.6-.5zm.7 1.5-.5-.5c.1 0 .2-.1.2-.1l.4.4s-.1.1-.1.2zm.3-2.2c.1.1.1.2.2.3-.3.1-.5.1-.5-.2v-.3c.2-.1.3-.2.5-.3l.1.1c-.2.2-.2.3-.3.4zm.2-1c-.1 0-.2 0-.2-.1v-.2c0-.2 0-.5-.1-.8.2 0 .3 0 .4-.1l.1.1c-.1.4-.1.7-.2 1.1zm.2-4.5s-.1.1-.2.1v-.9c0-.2.1-.3.4-.3-.1.3-.2.7-.2 1.1zm.4 1.5-.2-.2v-.3c0-.1.1-.3.3-.5.1 0 .1.1.2.1.1.1.3.3.2.5-.2.2-.4.3-.5.4zm1.3-3c-.2 0-.3 0-.4-.1 0 .2-.1.3-.1.5-.3-.1-.3-.3-.3-.5l.6-.3c0 .1.1.2.2.4zm0-2-.2-.2c.2.1.2.1.2.2zm.1-6.4-.1-.2c-.1 0-.2-.1-.4-.1.1-.3.2-.3.3-.4v.3c.1 0 .1 0 .1.1.1.1.1.2.1.3zm.1 4.4c-.2-.1-.1-.3 0-.4.1 0 .2.1.2.1v.2c0 .1-.2.1-.2.1zm.2 1.1c.1 0 .1-.1.2 0l.1.1c-.1 0-.1 0-.3-.1 0 .1 0 .1 0 0zm.5 1.5c0-.2-.1-.3-.1-.5.2-.1.3-.1.3.1.1.2.1.3-.2.4zm.5-3.2c-.1-.1-.2-.3-.4-.3-.1 0-.3 0-.4-.2.2-.1.3-.1.5-.2.3.1.4.2.3.4.1.2.1.3 0 .3zm.3 1.1c-.1 0-.1 0 0 0-.2-.1-.1-.2 0-.3.1.2.1.2 0 .3zm0-7.6c.1 0 .2 0 .2.1v.2c-.2 0-.2-.1-.2-.3zm.2 3c.1 0 .2.1.3.1-.1.1-.2.1-.3.2v-.3zm.3 3.1c-.1 0-.1 0 0 0-.1 0-.1 0 0 0-.2-.2-.1-.3 0-.4.1 0 .1.1.1.1 0 .1-.1.2-.1.3zm.2 2.5c-.1-.1-.1-.3-.1-.5v-.1l.1-.1c.1-.1.2-.1.4 0v.6c-.2.1-.4.2-.4.1zm.3 1.3c-.1-.2-.1-.5-.2-.7.2 0 .3-.1.5-.1 0 .2-.1.3-.1.4 0 .1.1.2.1.4 0-.1-.2-.1-.3 0zM36 15c-.2-.3-.3-.6-.5-.9.1 0 .2-.1.3 0l.1.1c.1.2.3.3.4.5.2-.1.4-.3.6-.4-.1-.1-.1-.3-.3-.4h-.2c-.2-.2-.4-.3-.6-.5.2-.1.3-.1.4-.1 0 0 .1 0 .1.1l.3.3h.6c0 .1.1.3 0 .4-.3.4-.2.7 0 1.1v.1h-.6c-.1-.1-.1-.2-.2-.4-.1.1-.3.1-.4.1zm1.5 1.7c-.1.1-.2.1-.3.2 0 .1 0 .2.1.4-.1 0-.2 0-.2.1s-.1.2-.1.2c0 .1-.1.1-.2.1v-.6c0-.2 0-.4-.1-.6-.3 0-.5-.1-.5-.5.1 0 .2.1.3.1 0-.1.1-.2.1-.2.1-.2.3-.2.4 0 .1.2.1.3.2.5 0 .1.2.1.3.3zm.7 2.8c-.1-.1-.1-.3 0-.4l.1-.1c.2-.1.3-.1.5-.1.1.2-.1.3-.2.4l-.4.2c.1.1 0 .1 0 0zm.1.9v-.2l.2-.2.1.1c0 .1-.1.1-.1.2-.1.1-.2.1-.2.1zm.1 1.5c.1-.1.3-.2.5-.3.1-.5.1-.9.2-1.3h.1c0 .1.1.3.1.4 0 .4-.1.8-.2 1.1-.2.2-.4.2-.7.1zm.1.9v-.6c.1.1.1.2.1.3.1.2.1.2-.1.3zm.2 1.2c0-.3.3-.4.5-.4 0 0 .1.1.3.2-.4.2-.5.3-.8.2zm.8-2.8c0-.1.1-.1.1-.2.2-.2.3-.2.6 0-.1.2-.1.4-.3.7 0-.1-.1-.1-.1-.1v-.1s0-.1-.1-.1l-.2-.2zm.3 2.6c0-.2.1-.4.4-.3-.1.2-.2.3-.4.3zm.4-3.3c-.1 0-.1 0-.2-.1v-.1l.2.2zm-.2-3.2h-.4c-.1.3.5.5.2.9l-.3-.3c-.1-.1-.2-.1-.4 0-.2-.3-.5-.6-.7-.9-.1.2-.3.4-.2.6l.2.2c.1.1.2.1.3.2v.3c0 .1.1.1.1.1h.4l-.1.1c.2.2.5.3.7.5v.1h-.5c.1.2.2.4.2.5.1.3.1.4-.2.4H39c-.1-.1-.2-.2-.1-.3.3-.3.1-.7.1-1h-.3l-.1-.1c-.1-.1-.2-.3-.3-.4-.2.1-.4.1-.6.2v-.3c-.1-.3 0-.4.2-.5 0-.3 0-.6-.1-.9-.1-.3-.1-.4.3-.5.1 0 .2-.1.1-.2 0-.1-.1-.1-.1-.2-.2 0-.4.2-.6.4-.1 0-.2 0-.3-.1.1-.4.5-.7.4-1.1h.4c.3 0 .6 0 .7-.4 0-.1.1-.1.2-.2l.5.5c-.4 0-.5.4-.8.5.1.2.2.4.2.6-.1.1-.2.3-.4.4 0 .3.1.5.1.5.1.1.2.1.5.1h.1c.4.2.6 0 .8-.3.2-.2.3-.5.1-.9.2-.1.5-.2.7-.3 0 .1 0 .2.1.2.1.2.2.3.3.3h.4c.2-.1.3-.1.5-.2 0-.1-.1-.2-.1-.3-.1 0-.3 0-.4.1 0-.1 0-.2.1-.2h.2c.3.1.5.1.8-.1l.2.2s.1 0 .1.1c.1.1.2.2.3.4-.3 0-.5-.1-.8-.1-.2.2-.2.2 0 .7.2 0 .4 0 .6.1.1 0 .1.1.2.1 0 .1 0 .2.1.3-.3-.2-.5-.3-.7-.4-.1.1-.1.2-.2.3-.1 0-.2 0-.2-.1-.2-.1-.2-.3-.2-.5-.3-.1-.5-.1-.7 0l.1.1s.1 0 .1.1l-.1.1H41c-.2 0-.3-.1-.5-.1-.3.5-.4.5-.5.7zm2.8 1.4s0-.1 0 0c0-.3-.1-.5.1-.7 0 .1.1.1.1.1.2.3.1.5-.2.6zm-.2-1.1c.1-.1.2 0 .2 0s0 .1-.2 0c0 .1 0 .1 0 0 0 .1 0 0 0 0zm-1.6-.2c-.2.1-.3.2-.4.1-.1 0-.1-.2-.2-.3 0 0 .1 0 .1-.1.2.2.4.3.5.3zm-.7 2c.2-.2.3-.2.5-.2.1 0 .2.1.3.2.1.1.1.2.2.2.2.2.2.2 0 .5-.2-.5-.7-.5-1-.7zm.6 7.8v-.4c.1 0 .1.1.2.1 0 .1-.1.2-.2.3zm0-5.8s-.1 0 0 0c-.1-.1-.1-.2-.1-.3 0 0 0-.1.1-.1 0 0 .1 0 .1.1.1.2.1.3-.1.3zm.2.3c.1.1.3.1.4.2-.2.1-.3 0-.4-.2zm.4 5c0-.1 0-.2.1-.3.1-.1.1-.1.2-.1 0 .1-.1.3-.3.4zm.3-1c-.2-.1-.2-.1-.2-.2 0 0 .1-.1.1 0 .2 0 .1.1.1.2zm.1-4.3c-.1 0-.3 0-.3-.1-.1-.2-.1-.4-.1-.6 0 0 .1 0 .1-.1.1.2.3.4.4.6l-.1.2zm.4 2.3s0-.1 0 0c-.2 0-.3-.2-.3-.3.2 0 .2.1.3.3 0-.1 0 0 0 0zm-.1-3.3c-.1 0-.1 0 0 0-.2-.1-.2-.2-.1-.2 0 0 .1 0 .1-.1v.3zm.4 2.1c0 .1 0 .1-.1.2-.1 0-.3.1-.4.1v-.1c.1-.1.2-.2.3-.2.1-.1.1 0 .2 0zm-.5-2.8c-.2-.4-.4-.8-.6-1.1h.1c.1 0 .2.1.3.1l.1-.1c0-.1 0-.2-.1-.2-.2-.1-.5-.2-.7-.3-.1 0-.2-.1-.1-.2-.2.1-.2.3-.1.5 0 .1.1.2.1.3h-.3c-.1-.2-.1-.3-.2-.4-.2-.2-.1-.3 0-.5.1-.1.1-.1.2-.1s.2 0 .2.1c0 0 .1 0 .1.1l.3-.3c.2.1.5.2.7.3.1.3.1.6.2.9s.2.5.4.9h-.6zm.8 3.8c.1.1.1.3 0 .5-.1-.1-.2-.1-.1-.2-.1-.1 0-.1.1-.3zm.5 3.8h-.5v-.2s.1-.1.2-.1.3.1.3.3zm0-.7c0-.1 0-.2.1-.2 0 0 .1 0 .1.1v.1c-.1-.1-.1 0-.2 0zm.4-1.9c-.1-.1-.2-.2-.3-.4.1 0 .2-.1.3-.1v.5zm.4 3.4c-.1 0-.2 0-.4-.1l.3-.3c0 .2 0 .3.1.4zm-.1-.8c-.1-.1-.1-.2-.1-.2v-.3l.1.1v.1c.1.1.1.2 0 .3zm.1-6.2s0-.1 0 0c-.1 0-.2-.1-.3-.2 0 0 0-.1-.1-.1.3.1.4.1.4.3zm.1.3c.2.1.4.1.5.4-.4-.1-.5-.1-.5-.4zM45 28c-.1.1-.1.1-.2.1-.1-.3.2-.4.2-.7 0 .1.1.2.1.3.1.1 0 .2-.1.3zm-.2-3.7c0-.3 0-.3.2-.3l.1.1c-.1 0-.1.1-.3.2zm.5-3.5v.2h-.6c-.1-.1-.2-.3-.3-.5.1 0 .2-.1.3-.1 0 0 .1 0 .1-.1.1.2.3.4.5.5zm.4 7.2c0-.2 0-.3-.1-.4.2.1.3.2.1.4zm-.3-8.2c.3 0 .3.2.4.4v.1c-.3 0-.4-.1-.4-.5zm.3-.4c-.1-.1-.3-.1-.4-.2v-.1h.5c0-.2.1-.3.1-.5l.3.3c-.2.3-.4.4-.5.5zm.4 2.1c.1.2.1.3.2.4-.1-.1-.2-.2-.2-.4zm.4 2.5h-.2.2zm-.1-4.2c-.2 0-.2-.1-.1-.2v-.1c.1 0 .1.1.1.1.1 0 .1.1 0 .2zm0-.9c0-.1-.1-.1-.1-.2 0-.2 0-.5.2-.7.3.1.4.4.5.7-.3.1-.4.1-.6.2.1 0 .1 0 0 0zm.3 8.2c0 .1-.1.1-.1.2l-.1-.1c0-.1.1-.1.2-.1-.1-.1 0 0 0 0zm.3-6c-.1 0-.1 0 0 0-.1 0-.1-.1-.2-.1l.1-.1c0 .1.1.1.1.2zm.8-1.8H47c0-.1 0-.2.1-.2s.2 0 .2-.1c0-.2 0-.3.1-.5h.1c.1.3.2.6.3.8zm-.7-2.1c-.1-.3-.2-.6-.4-.9.5.2.9.1 1.2.3-.3.2-.1.5-.2.8-.1-.1-.4-.1-.6-.2zm.8-1.1c.2.1.2.2 0 .3v-.3zm.2 4.6c-.1 0-.1.1 0 0-.1.1-.1 0-.2 0 0 0 .1-.1.2 0 0-.1 0-.1 0 0zm-.4-6.9c.2 0 .4 0 .6.1.1 0 .1.1.1.2s0 .1-.1.2c-.2-.1-.5-.1-.6-.5zm.6 1.1c.1 0 .2 0 .2.1v.1c-.1 0-.2 0-.2-.2zm.5 2.9c-.1 0-.1 0 0 0-.1 0-.1 0 0 0-.1 0-.2-.1-.3-.2.1 0 .2 0 .3-.1v.3zm-.1-1c-.2-.1-.4-.2-.2-.4.1-.1.1-.3.2-.5.2.3 0 .5 0 .9zm.3-4.2c-.2-.1-.3-.2-.3-.3s0-.2.1-.3c.1-.1.2 0 .3.2 0 .3-.1.4-.1.4zm0-3.3v-.4c.1.1.2.1.2.2-.1.1-.1.2-.2.2zm.5 4.5c-.2 0-.4-.1-.4-.3 0-.1.1-.2.2-.4V13c0 .1.1.1.1.1v.3c.2.2.2.3.1.4zm-.1-2c-.1 0-.2-.1-.3-.1v-.2c.1-.2.2-.1.6.1.1.1.2.2.1.4-.1-.2-.2-.3-.4-.2zm.5 2.5s-.1 0 0 0l-.1-.2c.2.1.2.2.1.2zm.2-5.4c-.2-.1-.2-.3-.1-.5.1.1.1.2.1.2.1.1.1.2 0 .3zm.2-.9h-.2s0-.1.1-.1c0 .1.1.1.1.1zm.2-4s-.1 0 0 0l.2-.1c-.1 0-.1 0-.2.1zm.6 8.6c-.2 0-.2-.1-.2-.2h.1c.1 0 .2.1.3.3-.1-.1-.2-.1-.2-.1zm.2-8.3c0-.1 0-.1 0 0-.2-.2-.3-.2-.3-.3 0-.1.1-.2.2-.4l.3.3c0 .1-.1.2-.2.4zm.4.9c-.1 0-.1 0 0 0-.1.1-.1.1 0 0-.1.1-.1.1 0 0-.1.1-.2 0-.2 0s0-.1.2 0c-.1-.1 0 0 0 0zm0 1.4h-.3c.1-.1.1-.2.2-.2 0 .1.1.1.1.2zm.2-4.1c-.3-.2-.6-.2-.8-.4V2c.2 0 .5.1.8.1v.4zm38.9 22.7c0-.1-.1-.2 0-.3.1-.3 0-.4-.1-.6 0-.1.1-.2.1-.3-.1 0-.2.2-.4 0 .1-.1.3-.2.4-.2.2-.7-.1-1.2-.2-1.8.4-.5.4-1 .3-1.5-.1 0-.2-.1-.3-.2.1-.2.2-.4 0-.6l.3-.3c0-.2-.1-.4-.1-.5.2-.3 0-.5-.2-.6.1-.2.2-.3.2-.4-.1-.1-.1-.2-.2-.4.2-.1.3-.3.2-.5 0-.1-.1-.3 0-.4.2-.6-.1-1.1 0-1.7v-.2c-.2-.2-.1-.5 0-.7 0-.1 0-.2.1-.3-.1-.1-.2-.1-.3-.1.1-.1.1-.2.2-.3-.1-.1-.1-.2-.2-.3.1-.1.1-.3.2-.4-.2-.1-.3-.3-.5-.3-.6-.1-1.1-.2-1.6-.2h-1c-.2 0-.4 0-.6.2-.1.1-.3.1-.5.2v-.3c-.3 0-.5.4-.8.2v-.3c-.2.1-.3.2-.4.3-.2.1-.4.2-.6 0-.2-.2-.4-.1-.5 0-.4-.5-.8-.2-1.2 0-.3-.2-.5-.3-.8-.1-.2.1-.5.4-.8.1 0 0-.1 0-.1.1h-.2c-.4-.3-.8-.2-1.2-.2h-.6c-.4-.1-.4-.1-.6.3 0 .1-.1.1-.1.2-.2-.3-.5-.3-.7-.4-.3.2-.6.3-.9.5-.2.9-.5 1.7.1 2.7-.3.3-.4.6-.3 1v1.3c.3.3.5.7 1.1.7.4 0 .8.1 1.2.1.4 0 .8-.2 1.2 0h.8c.3-.2.3-.2.6-.2.1 0 .3 0 .4-.1.3-.2.6-.1.8.2.1.1.2.1.2.2.1.1.2.2.1.4 0 .2 0 .4.2.6-.2.2-.5.3-.6.5-.1.2-.5.3-.4.6H82c0 .1.1.3.1.4s-.1.3-.2.4c-.1.1-.3 0-.3-.1s-.1-.1-.2-.2c-.1.1-.1.2-.2.4-.1 0-.2-.1-.2-.1-.3.2-.5.3-.8.4-.3.1-.5.2-.8.3-.3 0-.5.1-.7.4-.2 0-.3 0-.5-.1-.3-.1-.6-.1-.8.2h-.1c-.1-.1-.2-.1-.3-.2-.1 0-.3.1-.4.1-.3-.1-.5-.1-.8.1-.2-.2-.5-.3-.7-.5-.1-.1-.2-.1-.3-.1-.3.1-.4-.1-.6-.2-.4-.2-.7-.5-1.1-.5-.1 0-.2-.1-.3-.2-.2-.2-.5-.3-.5-.6 0 0-.1-.1-.2-.1-.2-.1-.4-.1-.4-.4 0-.1-.1-.2-.2-.2-.1-.1-.3-.1-.4-.2l-.1-.1c.1-.1.1-.2.2-.3-.6-.4-.9-1.1-1.2-1.7 0-.1 0-.1-.1-.2 0-.2-.1-.4-.1-.6-.1-.2-.1-.4-.2-.6 0-.2-.1-.3-.2-.5 0-.3.3-.5 0-.9v-.1c0-.2.1-.4.1-.7 0-.6.1-1.1.4-1.7l.3-.9c.1-.2.1-.3.2-.4.2-.4.4-.9.6-1.2 0 0 .1 0 .2.1.2-.2.3-.5.5-.6l1.2-.9c.1-.1.2-.2.3-.2.2 0 .3-.2.5-.3.1-.1.3-.2.4-.2.3 0 .5-.1.7-.3.2-.2.5-.3.7-.2.1-.1.2-.3.3-.3 1 .3 1.2.2 1.2-.1.1-.2.2-.3.5-.2.2-.4.2-.2.3-.1.1 0 .3.1.4.1.2.1.4.1.5.2.2.2.4.2.6.2.3 0 .5.1.8.1.2 0 .5.1.6.2.3.2.7.2.9.5 0 0 .1 0 .1.1.1-.1.1-.2.2-.3.1.2.1.4.3.5.1.1.3.1.5.1v.1c0 .3.2.5.5.5.2 0 .3.1.5.2l.3.3c.1.1.2.2.4.1s.4-.1.6-.2c.1.1.1.2.2.3l.3-.3c.2-.3.5-.6 1-.7.5-.1.9-.3 1-.8.3.2.6 0 .8-.3.3-.4.7-.7 1.1-.8 0-.1.1-.2.1-.4.4-.1.6-.2.6-.4 0-.4 0-.8-.3-1-.3-.2-.6-.5-.8-.8 0 0-.1-.1-.1-.2-.6 0-.7-.2-.9-.3-.8-.5-1.4-1-2.1-1.6-.3-.1-.5-.2-.7-.2-.1 0-.2 0-.3-.1-.2-.2-.4-.3-.7-.2-.1-.1-.2-.3-.3-.5-.1.1-.1.2-.1.2l-.2.2c-.2 0-.1-.2-.1-.3-.2-.1-.2-.2-.2-.3-.2 0-.3.1-.4.1-.6-.5-1.2-.7-1.6-.5-.3-.2-.6-.4-1-.2-.2.1-.3 0-.4-.1l-.4-.2h-.1c-.1.1-.1.2-.2.2h-.1c-.4-.1-.8-.3-1.2-.1h-.2c-.5-.2-.9 0-1.2.1 0 .1 0 .2-.1.4-.2-.2-.3-.3-.4-.5-.6.1-1.1.3-1.6.4s-1.2.3-1.7.5c-.3.1-.5.2-.8.3-.4.1-.7.3-.9.7-.1.2-.3.3-.5.3-.3 0-.6.1-.7.4 0 .1-.1.1-.2.1-.2.1-.3.2-.5.3-.2-.1-.3 0-.5.1-.1.1-.3.2-.4.3-.2.2-.4.5-.6.6-.5.4-1.1.8-1.4 1.3-.1.1-.2.2-.3.4-.1.3-.4.6-.6.8-.3.3-.3.8-.7.9v.1c0 .3-.1.4-.3.6-.1.2-.3.4-.2.6 0 .1 0 .2-.1.2-.3.4-.5.8-.8 1.1.1.3.1.5.2.7-.2 0-.3 0-.4.1V12c0 .1 0 .2-.1.3-.1.2-.1.3-.2.5-.3.9-.2 1.6.1 2.5-.3.1-.3.3-.2.5.1.3.1.7.2 1 .1.1.2.2.3.2v.1h-.3c0 .1-.1.2 0 .3.1.1.2.1.2.2-.1.2-.1.3-.1.4l.3.3c0 .4.1.7.1 1.1.1.3.1.6.2.9 0 .2.1.3.2.4.1.1.2.2.2.3 0 .3.1.5.3.7.2.2.4.5.5.8 0 .1.1.1.2.1l.3.3-.3.3.4.4c.3.3.6.4.8.9l.1.1c.1.1.2.3.2.4.1.1.1.2.2.2.2.2.3.4.6.5v.1c.1.2.2.3.4.3.2.1.3.2.5.4.5.5.9 1 1.6 1.1.1 0 .2.1.3.2.1.2.3.4.6.3.1 0 .2.1.2.1.3.3.7.5 1.2.5.1 0 .3.1.4.2s.2.2.3.2c.3.2.6.4 1 .3.2-.1.4 0 .6.2.1.1.2.2.4.2.5-.1 1 0 1.4.2.4.2.9.2 1.2 0 .1.1.2.2.3.2.5 0 1-.1 1.3-.2.2 0 .3-.1.5 0h.8c.3-.1.6-.2.8-.4.2-.1.5-.3.7-.1h.2v-.4c.3 0 .4-.3.6-.5.1.1.2.3.3.4l.2-1c.2-.1.3-.2.5-.3l.4-.4c.2.2.5.2.7 0 .2.4.4.7.5 1s.3.5.6.7h.3c.5 0 .9-.1 1.3-.2h.2c.2 0 .4.1.6.1h.7c.2-.1.4-.2.6-.4.2.2.6.4.7.3.3-.2.5-.5.7-.8.1-.2 0-.3 0-.4v-.2c.1-.7-.1-1.3.1-2l-.1-.2zm-9.9-12.4s0-.1 0 0c0-.1-.1-.2-.1-.3h.2c0 .1 0 .1-.1.3zm.3 1.8c-.1 0-.2-.1-.2-.2h.4c0 .1-.1.2-.2.2zm1-.6c-.1 0-.2 0-.2-.1v-.2c.1-.1.3-.1.3.1 0 .1 0 .2-.1.2zm.3 3.6c-.1-.1-.1-.2 0-.4v.4zm0-1.3-.1-.2s.1 0 .1-.1v.1c.1.2 0 .2 0 .2zm.6-2 .1.2h-.1v-.2zm-.5.8c.1-.1.1-.1.2-.1h.1c.1 0 .1.1.2.2 0 0 0 .1.1.1-.2-.1-.4-.1-.6-.2zm.8-1.5c-.1 0-.1 0-.2-.1.1-.1.1-.2.2-.1.1 0 .1 0 .2.1-.1 0-.2.1-.2.1zm2.9-7.7s.1 0 0 0c0 .2 0 .2-.1.2l-.1-.1c.1 0 .2-.1.2-.1zm-.6.1c-.2 0-.2-.2-.2-.4.1.1.2.3.2.4zm-.2-1.2c.1-.1.2 0 .4.1-.2.1-.3.1-.4-.1zm-.3 1.7c.2.1.3.2.1.4h-.2c-.1-.2 0-.3.1-.4zm-2.5-.2h-.4s0-.1-.1-.2c.3 0 .5-.1.7-.1 0 .2 0 .3-.2.3zm-.6-1.1h.3c.1 0 .2.1.2.2-.2.1-.3 0-.5-.2 0 .1 0 0 0 0zm1-.9s0 .1 0 0l-.2.1c0-.1 0-.2.1-.3.1.1.1.2.1.2zm-.2 1.2c.1 0 .1.1 0 0 .1.1.1.1 0 0 .1.2 0 .3 0 .3l-.1-.1c0-.1.1-.1.1-.2zm.7-1.3c.1 0 .1 0 0 0 .1.1.2.1.2.1.1.2.1.3.2.5s.1.3-.3.5c-.1-.3-.2-.6-.2-.9 0-.1.1-.1.1-.2zm-.2 1.5c.1 0 .2.1.1.3l-.1-.1v-.2c-.1.1-.1 0-.2 0h.2zm0 1.7v.3h-.2c-.1 0-.1-.1-.1-.1 0-.3.1-.3.3-.2zm-.7-4.2c.2 0 .3 0 .4.1 0 .1-.1.2-.1.3-.2-.2-.3-.2-.3-.4zm-.4-.6h.3v.5h-.1c-.1-.1-.1-.2-.2-.3s0-.2 0-.2zm-.2 1.1c.2 0 .2.1.2.3h-.4v-.1l.2-.2zm-.3 2v.2c0 .1-.1.1-.4.1l.4-.3zM81 2.9c.1 0 .1 0 0 0 .2.2.3.3.3.4v.1c0 .1 0 .1.1.2-.2-.1-.3-.1-.4-.2v-.5zm-.1 1.3c.2 0 .3.1.4.3v.1c-.2-.1-.4-.1-.6-.2l.2-.2zm-.1 1.4c0 .1 0 .1 0 0 0 .3.1.5-.1.6 0 0 0 .1-.1.1-.1-.2-.1-.4-.2-.7.2.1.3.1.4 0zm-.6-2.2c.1 0 .1.1.2.1.1.1.1.2.1.3s0 .2-.1.3c0 0 0 .1-.1.1-.1-.4-.1-.6-.1-.8-.1-.1 0-.1 0 0zm-.4 1.4c.2-.2.4-.1.5-.1s.2.2.3.3c-.4.1-.6 0-.8-.2zm-.4-1.3-.2-.2.1-.1c.1.2.1.2.1.3zm.1-1.4c-.1.1-.1.3-.2.4-.1-.2-.1-.2.2-.4zM79.3 5c-.1.2-.2.4-.4.7-.2-.5-.1-.7.4-.7zm-1.2-1.8c.1-.2.1-.3.2-.4h.1s0 .1.1.1c0 0 0 .1.1.2 0 .1 0 .1.1.2-.3-.1-.4-.1-.6-.1zm-.3 1.1c.1-.1.2 0 .3.2v.1c-.2 0-.3.1-.4-.1 0-.1 0-.1.1-.2zm-.3 1.2c.1 0 .2 0 .4.1-.2.1-.4.1-.6.1.1-.1.1-.2.2-.2zm-.7-.9c.2 0 .3.1.4.2-.2.1-.3 0-.4-.2zm-.1-.9c.1.3-.1.2-.2.3v-.2s0-.1.2-.1zm-.8 1.9v.2c-.1-.1-.1-.1 0-.2-.1 0-.1 0 0 0zm-.7-1.5h.3c.1 0 .1.1.2.2v.1l-.1.1c-.1 0-.2.1-.3.1-.1 0-.1.1-.2.1-.1-.1-.1-.2-.2-.3.1-.1.2-.3.3-.3zm-.7.2c.1.2.1.4.1.5 0 0 0 .1-.1.1 0 0-.1 0-.1.1 0 0-.1.1-.2.1 0-.1-.1-.1-.1-.2-.1-.2 0-.3.4-.6zm-.4 1.5s.1 0 .2.1l-.1.1c-.1 0-.1.1-.2.1l-.1-.1c.1-.1.1-.2.2-.2zm-.5-2.2c0 .2 0 .3-.1.4-.1.1-.1.2-.3.2 0-.4 0-.4.4-.6zm-.5 2.6c.1.1.2.1.2.2 0 0 0 .1-.1.2-.1 0-.1-.1-.1-.1-.1-.1-.1-.2 0-.3zm-.7-.9s0 .1 0 0v.2c-.1-.1-.2-.1-.3-.2.2.1.3 0 .3 0zm-.6-.8c.1 0 .1.1.2.1v.1c-.2-.1-.2-.1-.2-.2zM65.6 12c.1.1.3.1.3.2.1.2-.1.3-.3.5-.2-.2-.1-.3-.1-.5.1-.1.1-.2.1-.2zm-.1 2c.1-.1.2-.1.3-.1v.3c-.1-.1-.2-.2-.3-.2.1 0 .1 0 0 0 .1 0 .1 0 0 0zm0 2.4c-.1 0-.1-.1 0 0-.1-.1-.1-.1 0 0-.1-.1-.1-.1 0 0-.1-.1-.1-.1 0-.2v.2c0-.1 0-.1 0 0 0-.1 0-.1 0 0 0-.1 0 0 0 0zm0 2.6c0-.1 0-.1 0 0 0-.1 0-.1 0 0l.2-.1v.2l-.2-.1zm.7 0c-.1.2-.3.1-.4.1.1-.1.2-.3.4-.1zm.3.5c-.1-.1-.1-.2 0-.3v.3c0-.1 0-.1 0 0 0-.1 0-.1 0 0zm-.1-1s.1 0 0 0c.1-.1.2-.1.3-.1 0 .1-.1.2-.3.1zm.5-2.9c-.1-.1-.1-.2-.2-.3.2 0 .3.1.2.3zm1.5-3.4c.1.1.1.2 0 .2-.1-.1-.1-.2 0-.2zm-.1-6.5V6c-.1 0-.1-.1-.1-.1 0-.1 0-.1.1-.2zm-.3 8.5c0 .2-.1.3-.3.2l-.1-.1c0-.1.1-.1.1-.1.2-.1.3-.1.3 0zm-.4-6.5s.1 0 .2.1c-.1.1-.1.1-.2.1v-.2zm-.1 4.8c.1 0 .1-.1.2-.1h.1c0 .1-.1.1-.1.2l-.2-.1zm0 6.7c0-.2 0-.3.2-.3h.2c0 .1.1.3.1.4h-.2c-.2 0-.3 0-.3-.1zm.3 3.4c-.1-.1-.1-.2-.2-.4.3.1.4.2.2.4zm-.1-.9v-.6c.1.1.2.1.2.2.1.1.1.1.1.2-.1 0-.2.1-.3.2zm.2-3.7c.2 0 .3.1.3.3-.2 0-.3-.1-.3-.3zm.4 2.3-.2-.2c-.2-.2-.1-.3.3-.6.1.2 0 .5-.1.8 0-.1 0 0 0 0zm.2-7h-.2v-.1l.2.1zm.3 7.7c.2 0 .3.1.3.3-.1-.1-.1-.2-.3-.3zm.3-1.3v.2c0 .1-.1.1-.2.1v-.3h.2zm1.3 2s.1.1.2.1c-.1 0-.1.1-.2.1v-.2c-.1 0 0 0 0 0zm-.1-12.5h-.2S70 9.1 70 9c.2-.1.3 0 .3.2zm-.3 5.1c.2 0 .3.1.2.3-.1-.1-.2-.2-.2-.3zm-.5-2.6c.1 0 .1.1.2.1l-.2-.1c-.1.1 0 0 0 0zm.3 10.1c-.3-.1-.3-.1 0-.5h.1c-.1.3-.1.4-.1.5zm.1-1.6c0-.1 0-.1 0 0 .1-.1.1-.1 0 0 .1-.1.1-.1 0 0 .1 0 .2 0 .3.1-.2.1-.3 0-.3-.1zm.3 3.7H70v-.2c.1-.1.2-.1.3-.1 0 0 0 .1.1.1-.1.1-.1.2-.2.2zm.2-1.2.2-.2c0 .1 0 .2-.2.2zm19.4-4.3c.1 0 .2 0 .2.1 0 0 .1.1.1.2-.2 0-.3-.1-.3-.3zm-1.1-3.7.3.6c-.4-.2-.5-.3-.3-.6zm.5 5.6c-.1 0-.1 0 0 0-.2.1-.3.1-.6-.1.3.1.4.1.6.1zm0-1.6c.1.1.1.2 0 .2l-.1.1c-.1-.1 0-.2.1-.3zm-.5.3c-.3-.1-.6-.3-.9-.4-.2-.6.2-1.1.1-1.5h.2c.2 0 .3.2.3.4 0 .3-.1.6-.1.8 0 .3 0 .3.3.4h.2c-.1 0-.1.1-.1.3zm-.9 1.5c.2-.4.3-.7.8-.8v1c-.3 0-.6 0-.8-.2zm-.2 1.3c0 .1 0 .1 0 0 0 .1-.1.1-.2.1v-.2H87v.3c.1 0 .2.1.3.1 0 .1-.1.2-.1.2-.1-.1-.2-.1-.3-.2-.2.2-.5.3-.8.5v-.3c.1-.2.3-.2.4-.3.1-.2.2-.4.2-.6.1-.2 0-.3-.1-.4-.3.3-.5.6-.8.9.1.2.1.4 0 .6-.1.2-.2.3-.4.5l.3.6c-.1.2-.2.3-.4.5-.2-.1-.3-.3-.4-.4.1-.3.2-.5.3-.7v-.3c-.1 0-.2 0-.3.1-.1 0-.1.1-.2.3-.2-.1-.4-.1-.5-.2v-.2c0-.2.1-.2.3-.2.3 0 .5 0 .8-.1.1-.1.1-.1.1-.2.1-.2 0-.4-.1-.6.1-.1.3-.1.4-.2-.2-.2-.4-.2-.6-.2-.3.1-.6.1-.9.2.1-.2.1-.3.2-.3.2 0 .3-.1.4-.3v-.2c.3-.1.5-.1.7.1.4-.2.4-.7.8-.9.1.2-.2.4.1.5.2.1.3.1.5.2.2.3.1.7.5 1 .1.2.2.3.2.3zm-.7 1.1c-.1 0-.2 0-.2-.1 0 0-.1-.1-.1-.2h.2c.1 0 .1 0 .1.3zm-1.5 1.6c-.1 0-.2-.1-.1-.3v.1c0 .1 0 .1.1.2-.1 0-.1 0 0 0zm1.8-4c-.1 0-.1.1-.2.1-.2 0-.3-.1-.4-.4h.1c.1 0 .3 0 .3-.3-.3-.1-.7-.2-1-.1-.1 0-.2.1-.3.2h-.2v.2c-.3 0-.6.1-.8-.1-.1-.1-.3 0-.4 0 0-.3-.1-.4-.3-.5-.1 0-.2-.1-.1-.3.2 0 .4.2.6.3.1-.1.1-.1.2-.1.2-.1.4.1.6.2.2.1.3.2.4.3.1-.3.4-.6.6-.9.1.1.1.2.1.2.4.1.8.2 1.1.4.1 0 .1.2.2.3-.2.3-.3.4-.5.5zm-3.1-2.3v-.5h.2c.1 0 .1.1.1.2-.1.3-.2.4-.3.3zm.4 1-.2.4c0-.3.1-.4.2-.4zm.5-.5c-.4-.2-.4-.3-.2-.7.3.2.1.5.2.7zm.3-.1c.1 0 .2.1.3.1.1-.1.2-.1.4-.2.1.2.1.3.1.5h-.4c-.3 0-.3-.1-.4-.4zm1.2-1.5c0 .2-.1.4-.1.5-.4.1-.6.1-.6-.2v-.3h.7zm0 1.1c.2 0 .3-.1.5 0 0 0 .1 0 .1.1l.1.1v.8h-.6c-.1 0-.2-.1-.2-.2-.1-.1-.1-.3-.2-.4-.1-.2 0-.3.1-.3l.2-.1zm-.2-.4-.3.6c-.2-.1-.3-.2-.4-.3.2-.2.4-.3.7-.3zm-.9-1c.1-.2.1-.3.3-.1-.1 0-.2.1-.3.1zm.4 2.5c0 .1-.1.2-.2.3-.1-.2 0-.3.2-.3-.1-.1-.1-.1 0 0-.1-.1 0 0 0 0zm1.8.1c-.1 0-.1-.1 0 0-.1-.2-.2-.3-.2-.4.3-.2.5-.2.8.2-.3.2-.5.2-.6.2zm.3-5.6s.1.1.2.1c-.1.1-.1.1-.2.1v-.2c-.1 0-.1 0 0 0zm-.9 2.7c.3-.1.4-.3.4-.5v-.6h.4c.1 0 .1.1.1.2 0 .2-.1.3-.3.4.2.4.7.2 1 .4.1.3-.1.3-.3.4-.1-.1-.1-.2-.2-.4-.2.1-.4.2-.5.3-.1.3-.2.4-.2.7 0 .2-.1.3-.1.5s0 .3-.2.4c-.4-.4-.4-.7-.1-1.1 0-.1-.1-.1-.1-.2-.2-.3-.1-.4.1-.5zm-.4 0s-.1.1-.2.1-.2-.1-.1-.2c.1-.3-.1-.6-.2-.9.5.2.7.6.5 1zm-.9-1.8c.2 0 .5.2.7.3-.2 0-.3.1-.4.1-.2 0-.3 0-.4-.1h-.1c0-.1-.1-.1-.1-.2.2-.1.3-.1.3-.1zm-.5-.7c0 .1 0 .1-.1.2l-.1.1c0-.2 0-.3.2-.3zm0 2.1c.1-.2.2-.3 0-.5v-.2h.1c.1.1.2.3.3.4 0 .1 0 .2-.1.2-.3.2-.2.7-.6.7h-.1v-.1c.2-.2.3-.4.4-.5zm-.6-1.1.2-.2c0 .2-.1.3-.2.2 0 .1 0 0 0 0zm.1 1.1c.1.1 0 .2 0 .4-.1 0-.2 0-.3-.1l.3-.3zm-.1.8c0 .2-.1.4-.1.6-.3 0-.3-.2-.4-.4 0-.1 0-.2.1-.2.1-.1.3-.1.4 0zm-.4-2.5c.2.2.1.5.1.8h-.2c-.2 0-.2-.3-.3-.3.2-.2.1-.5.4-.5zm-.6 6.5c0 .2.1.3.1.5-.1.1-.2.1-.3.1s-.2 0-.3-.1l.5-.5zm-.3 1.2c-.2 0-.2-.1-.2-.3.2 0 .3.1.4.3h-.2zm.1 1.8v.1s-.1 0 0-.1c-.1.1-.1.1 0 0zm-.5-2.9c.1-.2.2-.2.4-.2v.1c-.2 0-.3 0-.4.1zm-.4.6.2-.2v.1c.1.1 0 .2-.2.1zm-.4.2c.1 0 .1 0 0 0 .1.4.4.5.6.5v.3l-.1.1c-.1 0-.3 0-.4-.2l-.3-.6c.1-.1.2-.1.2-.1zm-.3 3c-.2 0-.2-.1-.2-.2.1-.1.2 0 .2.2zm-.5-3.1c.2.1.3.3.2.5l-.1-.2c-.1-.1-.1-.2-.1-.3.1 0 .1 0 0 0zm0 2.4c.1-.1.1-.2.2-.2s.1 0 .1.1v.2c0 .1-.1.1-.1.2-.1-.2-.1-.2-.2-.3zm-.6-1.9c.1 0 .2.1.2.2h-.3l.1-.2c-.1.1-.1 0 0 0zm-.9.9.3.1-.1.1c-.1 0-.1-.1-.2-.2zm-1.1 1.2h-.4s0-.1-.1-.1l.2-.2.3.3zm-.4-.9c0 .2-.1.2-.2.2l-.1-.1c.1-.2.2-.2.3-.1zm-1.8.6c.1 0 .1 0 0 0 .1.1.1.2 0 .3 0-.2-.1-.2 0-.3-.1 0 0 0 0 0zm-1.3.6s0 .1 0 0c.1.1 0 .1 0 .2v-.2c0 .1 0 .1 0 0zm-.5-1.3c0-.1 0-.1 0 0 .3-.2.5-.2.6 0v.2c-.4.1-.5 0-.6-.2zm-.7.2c0 .1 0 .2-.2.2.1-.1.1-.2.2-.2zm-.1.5c.1 0 .2 0 .3.1-.1 0-.2.1-.4.1h-.1c.1-.1.1-.2.2-.2zm-.4-2.6c.1.3 0 .4-.3.4 0-.3.2-.3.3-.4zm-2.4-.1c-.2 0-.2-.2-.2-.5.2.1.3.1.4.2 0 .1 0 .3-.2.3zm.2 1.8c0 .1-.1.2-.2.1v-.5c.3.1.2.3.2.4zM72 25c-.3-.1-.4-.2-.2-.5.3.1 0 .4.2.5zm0-2.5s0-.1 0 0c.1-.2.2-.3.4-.4.1.1.2.1.3.2-.1 0-.2.1-.3.1-.1 0-.1 0-.2.1 0-.1-.1 0-.2 0zm.2.8c-.1-.4 0-.5.5-.6-.1.4-.2.5-.5.6zm.5 2.1c-.1 0-.1 0 0 0-.1-.1-.1-.1-.2-.1 0-.1 0-.1.1-.1h.1v.2zm.1-2.1s-.1 0 0 0c0-.1 0-.2.1-.3h.1c-.1.2-.2.3-.2.3zm.1 3.6c0-.1 0-.2.1-.3 0-.1.1-.1.2-.2l.1-.1c0 .4 0 .5-.4.6zm.7-.7c-.2-.1-.3-.1-.5-.1 0-.2.1-.3.3-.3h.1c0 .1.1.2.1.4zm-.3-1.3c.1-.1.2-.1.3-.2.1.2.3.4.4.5-.1 0-.1.1-.2.1-.1.1-.3-.1-.5-.4zm1.1 1.3c-.1.1-.1.2-.2.2s-.2-.1-.2-.3c.1 0 .2.1.4.1zm.1-1.4c0-.3.1-.5.1-.6.3 0 .3.2.4.4-.2 0-.2.1-.5.2.1 0 .1 0 0 0zm.4 2.5c-.1-.3-.1-.4.3-.4 0 .2-.1.3-.3.4zm.1-1.5c.2-.1.3-.4.6-.3 0 .2.1.5.1.7-.1 0-.1 0-.1.1-.2-.3-.3-.4-.6-.5zm.9 1.5c-.4-.1-.4-.4-.5-.6h.1c.2.1.3.3.4.6zm.1-2.2c.2-.2.2-.3.4-.3.1 0 .1 0 .2-.1v.8c-.1.1-.3.1-.4.2-.2-.2-.2-.4-.2-.6zm.1 1.5c0-.1-.1-.1 0 0-.2-.2-.2-.3-.1-.4s.2-.1.4-.1c0 .3-.1.5-.3.5zm.5 1.2s-.1 0 0 0l-.2-.2c0-.1.1-.2.3-.2h.2c0 .3 0 .5-.3.4zm.8-2c-.1.2-.1.4-.1.5-.1.2-.3.2-.5.4h-.2c0-.1 0-.2.1-.3h.3c.1-.1.1-.2.1-.3 0-.1 0-.2.3-.3zm0-.9c-.2-.1-.2-.2-.3-.3 0-.1 0-.2.1-.3h.2s.1.1.1.2-.1.3-.1.4zm.7 1.9c-.1.2-.2.4-.4.7h-.3c-.1-.1-.1-.4 0-.6.1-.1.2-.1.2-.1.1-.1.3 0 .5 0zm-.2-.5h.2v.1l-.2-.1zm-.2-.3c0-.1 0-.2.1-.2l.1.1c0 .2-.1.2-.2.1zm.9.6c-.1 0-.1 0 0 0 .2 0 .3.1.5.1-.3.2-.3.2-.5-.1zm.4-.5c-.1 0-.1 0 0 0-.1-.2-.2-.4-.3-.5-.1 0-.2 0-.3.1-.3-.2-.5-.4-.7-.6l.1-.1c.1 0 .2.1.3.1.1 0 .3-.1.5-.1v.3h.5c.1.3.3.6.5.8-.2 0-.4.1-.6 0zm.5-2.4c.1-.1.1-.2.2-.2s.2 0 .2.1c.1.1.2.2.1.4-.3-.1-.4-.2-.5-.3zm.2 1.4c.2-.1.3-.2.5-.2h.1c.1 0 0 0 0 .1v.1c-.1 0-.2.1-.3.1s-.2 0-.3-.1zm.3 1.1V26h.2s.1.1.1.2H80zm.2-.5s-.1 0 0 0c0-.1.1-.2.2-.3 0 .2-.1.3-.2.3zm0-1c.1-.2.2-.3.4-.3h.2c-.1.2-.2.2-.2.3-.1.1-.2 0-.4 0zm1.2 2.4v-.3c.1 0 .1-.1.2 0 0 .1.1.2.1.3h-.3zm.4-1.3v.5c-.3-.1-.6-.2-.9-.2-.1-.3-.1-.5-.1-.7 0-.1.2-.2.4-.3v.1c0 .1-.1.2-.1.3-.1.3 0 .4.3.3.1.1.2 0 .4 0zm.4 1.8c0-.1-.1-.1-.1-.2 0 0 .1 0 .1-.1.1.1.1.2 0 .3.1 0 .1 0 0 0 .1 0 .1 0 0 0zm-.2-1.9c-.1-.1-.2-.1-.4-.2.2-.3.3-.5.6-.8.1.3.1.5.2.7 0 .4-.1.5-.4.3zm.1-2.5c.1-.2.2-.3.3-.2.1 0 .1 0 .2.1-.2 0-.3.1-.5.1zm.6 2.8c.1.1.2.1.3.1-.2.1-.3.1-.3-.1zm.8-1.3c-.1.3-.2.5-.3.8-.1-.1-.2-.2-.3-.2.1-.1.1-.1.1-.2.1-.2 0-.4-.2-.6.4-.1.5.1.7.2zm.1-1.4c-.1 0-.1 0 0 0-.1-.1-.1-.1 0 0-.1-.1-.1-.1-.1-.2v-.3s.1 0 .1-.1c.1.1.2.1.3.2 0 0 0 .1-.1.2v.1c-.1.1-.2.1-.2.1zm.2.5c.1-.3.2-.5.5-.7.1 0 .2 0 .3.2-.1.2-.3.3-.4.5h-.4zm.2 1.5c-.1 0-.1.1 0 0-.1.1-.2.1-.2 0h.2c-.1-.1-.1 0 0 0-.1 0 0 0 0 0zm.2 1.1c0-.1-.1-.1-.1-.2l.1-.1v.3zm0-1c.1-.2.2-.3.3-.5-.2-.1-.3-.3-.5-.4.1-.1.1-.2.2-.4.2.2.4.3.6.5-.1.1-.1.3-.1.4 0 .1-.1.2-.1.3-.2.1-.3.1-.4.1 0 .1 0 0 0 0zm.3 1.8c-.1 0-.1-.1 0 0-.2-.2-.1-.3-.1-.4.1.1.1.2.1.4zm1.3-1.9c0 .2 0 .4.1.5h-1.2c.3-.3.7-.2 1-.3 0-.1.1-.3.1-.5.1 0 .2-.1.4-.1l-.4.4zm.6-.7c-.1 0-.1 0 0 0h-.2s-.1-.1-.1-.2h.1c.1 0 .2 0 .2.2zm.4-1c0 .1-.1.2-.1.3-.1.1-.1.1-.2.1 0-.3 0-.6.2-.9.1.1.2.3.1.5zm.2 2.6c0-.1-.1-.1 0 0 0-.1 0-.2.1-.2l.1.1-.2.1zm0-2.1c.1 0 .3.1.4.1-.3.2-.3.2-.4-.1zm1.2 1.2c-.1.1-.2.1-.3.2-.1-.1-.3-.1-.3-.3.2 0 .4-.1.5-.1 0 0 .1 0 .1.2.1-.1.1 0 0 0zm-.4-2.1h-.5c-.1-.4.1-.7.5-.6h.5c-.2.2-.3.4-.5.6zm.5-1.5c-.1-.1-.2-.2-.2-.3h-.7l.1-.1c0-.1.1-.1.1-.1.2-.1.5-.1.7 0 .3.3.3.4 0 .5zm.4 4.7c-.1 0-.1 0 0 0-.1.1-.1.1-.2.1 0-.1 0-.3.1-.4.1.2.2.2.1.3zm.2-3.6c0 .1-.1.2-.2.4-.2-.2-.2-.3-.1-.6.1.1.3.1.3.2zm0-1.6c0-.2 0-.4.2-.4-.1.2 0 .4-.2.4zm.4 2.2c0 .2-.1.4-.1.7-.2-.1-.2-.3.1-.7-.1 0-.1 0 0 0-.1 0-.1 0 0 0-.1 0 0 0 0 0zm-.4-5.8v-.8c.2.1.3.2.5.3l-.5.5zm.8.4c0 .1.1.1.1.2h-.1c-.1 0-.1-.1 0-.2-.1 0 0 0 0 0zm.3 4.6c-.1.1-.2.1-.3.2l-.1-.1c.1-.2.1-.3.2-.5 0-.1.2-.1.2 0 .1.2.1.3 0 .4zm.1 3.3c0-.1.1-.2.2-.2 0 0 0 .1.1.1-.2.1-.2.1-.3.1zm6.8 16.2c0-.1-.1-.1-.1-.2.1-.3.2-.7.4-1 0 .2.1.4 0 .5-.1.2-.1.5-.3.7zm-.6-1.5c0-.2 0-.3.1-.4-.1 0-.1-.1-.2-.1.1-.1.3-.1.4-.1 0 .1-.1.3-.3.6zm1.3.8c-.1.1-.1.2-.2.4-.1-.3-.1-.5.1-.6.1.1.1.1.1.2zM8.9 43.5c.1 0 .1.1.2.1 0 .1-.1.2-.1.3-.1.1-.1-.1-.1-.4zm88-3.4c.1.1.1.2.2.3-.2.1-.3 0-.2-.3zm.2-.1c.2 0 .3-.1.3.2-.1 0-.2-.1-.3-.2zM9 44.2c.3.2.3.3.1.5 0-.2 0-.3-.1-.5zm11.6-1.1c.1 0 .1 0 .2.1l.1.1-.1.1c-.1 0-.1-.1-.2-.1v-.2zm76.5-.9v-.4c.2.1.2.2 0 .4zM19.5 42c0 .3.1.4.4.3 0 .2 0 .3-.2.2-.1 0-.2-.1-.3-.1-.1-.1-.1-.2.1-.4zm-.4.5s-.1.1-.1.2c.1.1.2.2.4.3-.1.1-.1.1-.2.1-.3-.4-.3-.4-.1-.6z" class="st0"/><path d="M16.2 36.7c-.1-.2-.3-.3-.5-.4-.2-.1-.5-.1-.7 0-.2 0-.4.1-.6.1-.3-.2-.8-.2-1.2 0-.1 0-.1.1-.1.2-.1.3-.2.7-.3 1-.2.5-.3 1-.4 1.4-.1.3-.1.6-.2.9-.1.4-.3.9-.4 1.2 0 .5-.2.9-.4 1.2-.2 0-.4-.1-.4-.3-.1-.3-.2-.6-.3-.8-.1-.2-.1-.4-.1-.6 0-.3-.1-.6-.3-.7v.1s.1 0 .2-.1l-.3-.3v-.3c-.1 0-.2-.1-.4-.1 0-.3.2 0 .3-.1 0-.2.1-.3-.2-.4 0-.3 0-.5-.1-.7-.1-.4-.3-.8-.4-1.1-.1-.4-.4-.7-.9-.7h-1c-.5 0-.8.3-.9.6-.1.4-.2.7-.3 1-.1.4-.2.7-.4 1.1l-.9 3c0 .1 0 .4-.3.4-.1-.2-.2-.5-.2-.7 0-.1 0-.3-.1-.4-.2-.7-.4-1.3-.6-2.1-.1-.2-.2-.4-.2-.6 0-.4-.2-.6-.4-.9 0 0 .1 0 .2-.1-.5-.3-.4-.9-.8-1.2-.2.2-.5-.1-.8 0s-.6-.2-.8.1c-.1-.1-.1-.1-.1-.2-.2 0-.3.2-.4.1-.2-.2-.5 0-.7 0-.1.6.1 1.1.3 1.7.1.5.2 1.1.6 1.5-.1 0-.1 0-.2.1 0 .2 0 .4.3.3-.1.2-.2.4 0 .6l.1.1c0 .4.1.7.2 1.1.1.5.3 1.1.5 1.5 0 .1 0 .3.1.4.1.1.1.3.1.4.1.8.4 1.4.6 2.2.1.3.4.5.3.8.1.4.7.8 1.1.7.2-.1.5-.1.7 0l.2-.2.2.2c.2-.1.3 0 .4 0 .3.1.5-.2.8-.3l.3-.9s-.1-.1-.1-.2c.2-.2.4-.4.4-.7.1-.3.1-.6.2-1 0-.2.2-.3.2-.4 0-.4 0-.7.2-1 0-.1.2-.2.1-.4l.1-.2c.2 0 .3-.2.2-.5V42c.2-.2.2-.5.5-.7.1.1.3.2.4.3v.4c.1 0 .2.1.4.1 0 .1-.2.2-.1.4 0 .1-.1.3.1.4 0-.1.1-.1.1-.3-.2.4-.1.6-.1.8.2.1.4.1.4.4-.1 0-.2.1-.3.2.1.1.1.2.2.3.1.1.2.3.1.5-.1.1-.1.2-.1.3 0 .1.1.2.2.2 0 .1-.1.2 0 .3.2.4.2.9.5 1.2.1.1.3.3.1.5v.2h.2s0 .1-.1.1c.3.1.6.3.9.1 0-.1 0-.2.1-.3.1.2.1.2.2.3h.6c.3 0 .5.1.8 0 .2 0 .5-.1.7-.3.1-.2.2-.5.3-.8 0-.5.3-1 .4-1.4s.3-.9.4-1.3c.1-.5.2-1 .4-1.4.1-.3.2-.6.3-.8.1-.3.3-.5.1-.8.1-.1.2-.3.2-.4 0-.4.3-.7.2-1.1 0 0 0-.1.1-.1.1-.2.2-.4.2-.7.1-.3.2-.7.3-1 .1-.2.1-.4 0-.6-.2-.1-.1-.2-.2-.3zM2.9 41.3c0 .1 0 .3-.2.3 0 0-.1 0-.1-.1.1-.1.1-.2.3-.2zm0 3c-.1 0-.1-.1-.2-.1l.2.1zm-.2-1.8c.1-.1.2-.2.3-.2h.1c0 .1-.1.2-.1.3v.1c-.1-.1-.2-.2-.3-.2zm-.2-.3c.1.1.1.2-.1.3.1-.2.1-.2.1-.3zm-.3-.5c.1-.1.2-.1.3-.1-.1.2-.1.3-.2.4l-.1-.1v-.2zm.2-1.4H2c0-.1.1-.2.1-.3.1.2.2.2.3.3zm0 .5h-.2s0-.1.2 0c-.1-.1-.1-.1 0 0-.1-.1-.1-.1 0 0-.1-.1-.1 0 0 0zm-.2-1.3v.4c0 .1-.1.1-.1.1H2s-.1-.1 0-.2c0-.1.1-.2.2-.3zm-.1 1.8c.1 0 .2-.1.3 0-.2.1-.3.2-.4.3l-.1-.1c0-.1.1-.2.2-.2zm-.2-1.2h-.1c-.1 0-.2 0-.2-.3l.3.3zm-.1.4h-.2s0-.1.2 0c-.1-.1 0-.1 0 0zm-.3-1h.2l.1.1.1.1s0 .1-.1.1c-.1-.1-.2-.1-.3-.3zm.3 1.9c-.1-.2-.2-.3-.3-.5h.4v.1c-.1.1-.1.2-.1.4 0-.1 0 0 0 0zm.2.8s0-.1 0 0l-.1-.3H2l.1.1c-.1 0-.1.1-.1.2zm.3 0c0 .1-.1.2-.1.4-.1-.3-.1-.3.1-.4zm.1 1c-.1 0-.1 0 0 0v-.6h.3c-.2.2-.3.4-.3.6zm.3 1.4c.1-.1.2-.1.3-.1 0 .1 0 .2.1.3-.2-.1-.3-.2-.4-.2zm.4-2.4h-.3v-.1c.1 0 .2 0 .3.1 0-.1 0-.1 0 0 0-.1 0-.1 0 0zm.5-.7c0 .1 0 .1 0 0 .1 0 .1.1 0 0 .1.2 0 .3 0 .3h-.1c0-.1 0-.2.1-.3zm-.2 3.1h.4c-.1 0-.3.1-.4 0 0 .1 0 0 0 0zm-.1-.5c-.1-.1-.1-.2-.1-.2h.1v.2zm.5 1c0 .2-.1.3-.3.2-.1 0-.1-.2-.2-.3.3 0 .4 0 .5.1zm.4-1.5c0-.1.1-.1.1-.2h.1l-.2.2zm.1 1.1c-.2-.2-.2-.3-.2-.4 0-.1.1-.1.2-.2-.1.3-.1.5 0 .6zm.9-1.1.3-.1v.1h-.3zm-.4 3.1v.2c0 .1 0 .1-.1.2l.1-.4zm-.2-.8v-.2l.1-.1c0 .1.1.1.2.2-.1 0-.2 0-.3.1zm.3.4c0-.2-.1-.3.2-.4-.1.2-.1.3-.2.4zm.6-.4s0-.1 0 0c-.2-.1-.2-.2-.3-.3 0 0-.1 0-.1-.1.1 0 .2 0 .3.1l.1.1s.1.1 0 .2c.1-.1 0 0 0 0zm.2-.9c-.2-.2-.2-.3.1-.4 0 .1-.1.3-.1.4zm1.4-4.5c.1 0 .1 0 0 0 .1 0 .1 0 0 0 .1 0 .1.1 0 0 .1.1 0 0 0 0zM5.9 44c.1-.1.2-.1.3 0v.1c-.1-.1-.2-.1-.3-.1zm.5 1.4c-.1 0-.1-.1-.2-.1v-.1c.1 0 .1.1.2.2zm-.1-1.7v-.5c.2.1.2.3 0 .5zm.2 1.4c-.1-.1-.1-.2 0-.3v.3zm0-.5c-.1-.2-.1-.4.1-.4 0 .1 0 .2-.1.4zm.1-1.9v-.4h.1c-.1.1-.1.3-.1.4zm.1.7V43c.1 0 .2.1.2.1.1.1 0 .2-.2.3zm.2-1.6c.1 0 .1-.1 0 0 .1 0 .2 0 .2.1v.1c0-.1-.1-.2-.2-.2zm.2.5c0-.1 0-.2.2-.2-.1 0-.2.1-.2.2zm.9-2.1c-.2 0-.2 0-.3-.1.1 0 .1-.1.1-.1.1 0 .1.1.2.2zm.4 1c-.1-.1-.1-.2-.1-.2s0-.1.1-.1h.1c-.1 0-.1.1-.1.3zm2.5 1.1c0 .1-.1.1-.1.2-.2-.1-.3-.2-.4-.2 0 0 0-.1.1-.1 0-.1.1 0 .4.1zm-.3-1.1c-.1.1-.2.1-.4 0 .2-.1.3-.2.4 0zm-.3 1.3v.5h-.1c-.1-.2 0-.4.1-.5zm.1-2.3c0 .1.1.1.1.2h-.1c0-.1-.1-.1 0-.2-.1 0 0 0 0 0zm-.4-.4c.1 0 .2-.1.3-.1v.3c-.1-.1-.2-.2-.3-.2zm-.3 1.7c0 .1 0 .2-.1.4-.1-.1-.2-.2-.4-.3 0-.2 0-.4-.1-.6.2 0 .3.1.4.1.1 0 .2.1.4.1.1.2 0 .2-.2.3.1 0 .1 0 0 0 .1 0 .1 0 0 0zm-.6-.9c.2-.1.2 0 .3 0-.1.1-.1.1-.3 0zm0-.5s0-.1 0 0l.3-.1v.1h-.1c-.1.2-.1.2-.2 0zm.5.2c.1.1.2.1.4.2h-.3s0-.1-.1-.2zm-.1.4c.3 0 .4.1.4.3-.2-.1-.3-.2-.4-.3zm-.6-1.5c.1-.1.1-.1.2-.1 0 .1.1.2.1.3h-.1c-.1-.1-.1-.2-.2-.2zm-.3.2c.1.1.2.3.1.4.1-.1.3-.2.5-.2 0-.1 0-.1-.1-.2.1 0 .2 0 .3.1 0 0 0 .1.1.1-.1 0-.3.1-.4.1-.1.2-.1.4-.2.6-.1 0-.1-.1-.1-.1v-.4s0-.1-.1-.1c0 .1 0-.1-.1-.3zm.4 1.9c0 .1-.1.1-.2.3v-.2c.1-.2.1-.2.2-.1 0-.1 0 0 0 0zm-.3-.4v-.2c.1 0 .3 0 .4.1v.1h-.4zm.1 1.4c-.1-.1-.1-.2-.1-.4.2.2.3.2.5.1-.1 0-.2-.1-.2-.1l-.2-.2c.1.1.3.1.5.2 0 .1-.1.2-.1.2 0 .1 0 .2.1.3 0-.1-.5-.1-.5-.1zM9.9 44c-.1 0-.1.1-.2.1 0-.1 0-.1.2-.1zm.2 1.8c-.1 0-.1.1-.2.1v-.1h.2zm-.1-.9v-.3h.1c-.1.1-.1.2-.1.3zm0-.5c.1-.5 0-.7-.5-.8v-.7c0-.1.1-.1.1-.2-.1.1-.2.1-.3.2.1.2 0 .3-.1.5l-.3-.6.2-.2c.1.1.1.2.2.3l.2-.4c.1-.1.2-.2.4-.2h.2c-.3.1-.2.5-.3.7 0 0 0 .2.1.2s.2.1.3.1c0 0 .1 0 .1-.1.1-.1.1-.2.1-.2 0-.1.1-.1.1-.2 0 0 .1 0 .2.1s.2.1.2.1c.1 0 .1-.1.2-.2s.2-.1.2-.1c.1 0 .1.1.2.2h-.3c-.1.3.2.2.3.4-.2 0-.4 0-.6-.2-.3.1-.5.2-.8.2 0 .1.1.2.1.3l-.1.1c-.2-.1-.4-.2-.6-.4v.2c.2.1.2.3.4.3.1 0 .3.2.1.3v.3c.2-.1.2 0 0 0zm.3.4c0-.1-.1-.1-.1-.2 0 0 .1 0 .1-.1v.3c.1 0 .1 0 0 0zm.3-.7c.3 0 .3 0 .4.3-.2-.2-.3-.2-.4-.3zm.6.7-.1-.3c.1.1.1.2.1.3zm0-.8v-.3c-.1 0-.2-.1-.4-.2v.3h-.1c0-.1-.1-.2-.1-.4.3 0 .5-.1.6 0 .1.2.2.4.2.7-.2 0-.2 0-.2-.1zm.4-.4h-.2v-.1l.2.1zm.4.4c.1-.1.1-.1.2 0H12zm1.3-2.7c0-.1 0-.1.1-.2h.1l-.2.2zm-.6.6c0-.3.1-.5.1-.7 0-.1.1-.2.2-.2.1.4-.1.7-.3.9.1 0 0 0 0 0zm-.4 2.7c-.1 0-.1-.1-.1-.2.1 0 .2.1.3.2h-.2zm.3-1.9-.2.2c-.1-.1-.1-.1-.1-.2.2-.3.4-.3.7-.2v.2c-.1.1-.3 0-.4 0zm.4 1.1v-.3c.2.1.1.2 0 .3zm0-1.5c-.1.1-.3.1-.4 0-.2-.1-.3-.3-.2-.7v.5c.2 0 .3.1.6.2 0-.1.1-.2.2-.3v.2s-.1 0-.2.1zm.6 1.7h-.3c.1-.1.1-.2.2-.2 0 0 0 .1.1.2zm0-.8c-.3 0-.4-.2-.4-.4h.4v.4c0-.1 0 0 0 0zm.1-1.2c-.1 0-.1-.1-.2-.1v-.1c.1 0 .2.1.2.2 0-.1 0-.1 0 0zm.7-1.1h-.2s-.1 0-.1-.1v-.1c.1.1.2.1.3.2zm.6-3.1c-.1 0-.1 0 0 0-.1-.1-.1-.2 0-.2v.2c.1 0 0 0 0 0zm73 1.8v-2.7c0-.1 0-.2-.1-.4s-.2-.3-.4-.3h-2.2c-.1 0-.2.1-.4.2s-.3.3-.3.5c-.3.3-.4.7-.6 1.1l-.3.6c-.3.6-.6 1.1-.9 1.5-.2.3-.3.7-.5 1-.2.3-.1.7-.5 1v.4c-.5-.1-.5-.1-.7-.5s-.5-.9-.7-1.2c0-.1 0-.1-.1-.2-.2-.2-.2-.4-.3-.6-.1-.3-.3-.6-.4-.8-.1-.1-.1-.2-.2-.3-.3-.7-.6-1.3-1-2-.1-.2-.2-.4-.5-.5-.4-.2-.9-.1-1.2-.1h-1c-.3 0-.6.2-.6.4v2.2c0 .7-.1 1.4 0 2.1 0 .7 0 1.3.1 1.9v4.4c.2.2.4.2.6.2h1.8c.3 0 .5-.2.5-.4v-1.4c0-.5.1-1 .1-1.4 0-.1-.1-.2-.2-.4 0 0 .1-.1.1-.2-.1-.3.1-.7-.1-.9.1-.1.2-.3.3-.4.1 0 .1 0 .1.1.3.4.6.8.8 1.3 0 .2.1.3.2.5.3.6.5 1.1.8 1.6.1.3.4.5.7.5h1c.5 0 .8-.2.9-.7 0-.1 0-.1.1-.2.2-.5.5-1 .7-1.3.2-.5.5-.9.2-1.4.1.1.2.1.3.2l.2-.2c-.1-.2-.3-.3-.4-.4 0-.1.1-.2.1-.3-.2 0-.4 0-.7.1-.1-.1-.1-.2-.2-.3 0 .1-.1.1-.3.2.2-.3.2-.3.4-.3.3 0 .5 0 .7-.2.3.1.2.5.6.7V42c.2 0 .5.1.7-.1-.1.2-.2.3-.4.3-.2.1-.3.2-.1.3.3.3.2.7.2 1 0 .4-.1.8 0 1.1.1.5-.1 1.1 0 1.5v.2c0 .3.1.6 0 .9 0 .1.1.2.1.3.3.3.6.2.9.2.3 0 .6-.1.9 0 .3.1.6 0 .8-.1.1-.1.2-.2.2-.4V41c.2-.5.2-1 .2-1.4zm-9.7-.2c.1 0 .1 0 0 0 .1 0 .1 0 0 0 .1.1 0 .2 0 .3h-.1c.1-.2.1-.2.1-.3zm-.5-.8c-.1 0-.1 0 0 0-.1 0-.1 0 0 0-.1-.2-.2-.4-.2-.6.4.1.2.4.2.6zm-.2-1.1s.1 0 0 0c.1.1.1.1.1.2h-.1v-.2zm-.2 2.9h-.3c.1-.2.2-.2.3 0zm-.4-.2h-.2v-.1l.2.1zm-.2-2.4c0 .1.1.1.1.2h-.1s-.1-.1 0-.2c-.1.1-.1.1 0 0-.1.1-.1.1 0 0-.1 0-.1 0 0 0zm-.5.8c-.1-.3-.1-.5.1-.7h.1c-.1.2-.1.4-.2.7zm.2-1.2s.1 0 0 0c.1-.1.2-.1.2 0s-.1.1-.2 0c.1.1 0 .1 0 0zm.2 1c.1-.1.2-.1.3 0-.2 0-.2.1-.3 0 0 .1 0 0 0 0zm0 .8h.3v.1c-.1 0-.2 0-.3-.1zm.4 2.4c-.2-.1-.1-.3 0-.4.1.1 0 .2 0 .4zm-.3-.5c.1-.3.2-.4.4-.4-.1.2-.2.3-.4.4zm.9.4c-.1 0-.2-.1-.3-.1v-.1c.1.1.2.1.3.2zm.1-.8c-.2.1-.3.2-.6.3 0-.1.4-.6.4-.6.1.1.1.2.2.3zm.1-.7h-.2c-.1-.1-.1-.2-.2-.3-.1 0-.1 0-.2.1.1-.2.3-.3.2-.5h.1c0 .1.1.2.1.3.2-.1 0-.4.3-.5 0 .2.1.4.1.6-.1 0-.3.1-.5.1.2.1.2.1.3.2zm.3 1.3c-.1 0-.1 0 0 0V41h.1c0 .1-.1.2-.1.3zm.4-.7h-.3c.3-.2 0-.6.4-.8v.2c0 .2 0 .4-.1.5v.1zm.7-.3c-.2-.1-.3-.2-.5-.3.3 0 .4.1.5.3zm.5 1.1c-.1 0-.2-.1-.3-.1v-.1c.1 0 .2.1.3.2zm.9 1.1c-.1-.3-.1-.5 0-.5v.5zm.1-.5c0-.1 0-.1-.1-.2h.1v.2c0-.1 0-.1 0 0zm.3.3V42c.1.1.1.1 0 .3.1-.1.1 0 0 0zm1.6-1c.1 0 .1 0 0 0 .1 0 .2 0 .2.1l.1.1c.1.1.1.2-.1.3 0-.1-.1-.3-.2-.5zm-.4 1h.2v.1c-.1 0-.1 0-.2.1v-.2zm.1.7c0 .1-.1.1-.2.1h-.1c.1-.1.2-.1.3-.1zm-.3 1c-.1 0-.1 0 0 0 0-.1.1-.2.1-.2l-.1.2c.1-.1 0 0 0 0zm.4-.1s-.1 0 0 0c-.1 0 0-.1 0-.3v.1c.1 0 .1.1 0 .2zm.3-.5c0 .1 0 .2.1.3-.1 0-.2 0-.2-.1s.1-.2.1-.2c0-.1.1-.1 0 0 0-.1.1-.2.2-.2h-.1c.1.1 0 .1-.1.2zm.8.2c-.1.1-.1.1-.2.1s-.1 0-.2-.1h.4zm.3-.4c-.1 0-.1 0 0 0-.1 0-.1 0 0 0-.1-.1-.1-.2-.1-.4h.1c-.1.2-.1.3 0 .4zm-.6-.5c.1 0 .3-.2.4-.3v-.1c.3 0 .4.1.3.5-.1 0-.3 0-.4-.1 0 .1-.1.2-.1.4-.3.1-.4-.3-.6-.3.1 0 .1-.1.2-.1 0 .1 0 .1.2 0-.1 0 0 0 0 0zm2-.2c-.1 0-.1.1-.2.1l-.1-.1.1-.1c.1 0 .2 0 .2.1zm1-4.6c.2-.1.4-.1.5-.2 0 .1-.1.2-.1.3-.2 0-.3-.1-.4-.1zm0 .9.2-.2c0 .1.1.2.1.3-.1-.1-.2-.1-.3-.1zm.2.4.2.2v.1c-.1-.1-.2-.1-.2-.3zm-.4-.7c.1 0 .1 0 .2.1l-.2-.1c-.1.1 0 0 0 0zm-.3.7c.1.1.1.2.2.3h-.1c-.1 0-.1-.1-.1-.1v-.2zm-.5-.8c0 .1.1.1 0 0l.1.2-.1-.2c-.1.1 0 .1 0 0zm-.2 1h.4v.3c-.1-.1-.3 0-.4-.3zm-.2.3c.1.1.1.2.2.3.1 0 .3 0 .4-.1-.1.2-.2.3-.2.5h.2l.1-.1h.3c.1-.1.1-.1.3 0H86v.1h-.5v-.1c0-.1-.1-.1-.2-.2 0 .1-.1.1-.2.2-.1-.2-.5-.3-.2-.6zm.9 1.4c-.1 0-.1 0 0 0-.2 0-.2 0-.2-.1l-.2-.2c.1-.1.2 0 .4.3zm-.4 0c0 .1 0 .1-.1.2-.1 0-.2-.1-.3-.1v-.1c.1 0 .2-.1.4 0zm-.9-1.3c.1 0 .1.1.1.2-.1 0-.2-.1-.3-.1 0-.1.1-.1.2-.1zm-1.1 1c.1.1.2.2.1.3 0 0 0 .1-.1.1.1-.2.1-.3 0-.4zm.2.8c-.1 0-.2-.1-.3-.3.1.1.3.1.5.2 0 .1-.1.1-.2.1zm.4-.8s0-.1 0 0c-.1-.1-.1-.1 0 0 .1-.2.2-.3.4-.3h.2c0 .1-.1.1-.1.1-.3.1-.4.1-.5.2zm.3.5c.2-.1.4-.3.6-.5 0 .2-.1.3-.1.5h-.2l-.1.1c0 .1-.1 0-.2-.1zm.7.7c-.1 0-.1-.1-.2-.2l-.2.2c-.2-.1-.1-.2 0-.3.1-.1.1-.1.2-.1 0 0 .1 0 .1.1.1.1.3.1.1.3zm.6-.3c-.1 0-.1 0 0 0-.1 0-.1.1-.2.1 0 0-.1 0-.1-.1.1-.1.2-.1.3 0 .1-.1.2-.1.3.1-.1.1-.1.2-.2.3h-.1v-.4zm.3 1.5h-.2c-.1 0-.1-.1-.1-.2.1.1.2.1.3.2zm-.1-1.8c.1-.1.1-.2.2-.2.1-.1.2 0 .5.1-.3 0-.5 0-.7.1zm.6 3.9-.1-.2h.1v.2zm.1-2.1c0-.1-.1-.1-.1-.2h.1v.2zm.2 1.4s-.1 0 0 0l-.2.1s-.1 0-.1-.1l.1-.1c.1 0 .1 0 .2.1zm0-5.5c0-.1-.1-.2-.2-.3.4-.1.3.1.2.3zm.4-1.4c0 .1 0 .1 0 0h-.2.2c-.1 0 0 0 0 0zM117 45c0-.3.1-.7 0-1-.1-.3 0-.6 0-.8v-2.1c-.1 0-.1-.1-.2-.1-.5 0-.9-.2-1.3 0-.4-.1-.7.1-1.1 0-.3-.1-.5 0-.8 0h-.4c-.3-.1-.7-.1-1 0h-.2c-.3-.1-.5.1-.6.3v1c0 .2-.1.4-.1.6 0 .3.1.5.5.5.6.1 1.2 0 1.7 0 .2 0 .4.1.5.3v.2c-.2.3-.4.5-.6.7-.2.1-.4.1-.6.2-.4.2-.9.3-1.2.3s-.8-.1-1.1-.3c-.3-.1-.6-.2-.8-.5-.3-.3-.5-.5-.7-.8-.3-.4-.4-.8-.4-1.2-.1-.6.1-1.2.4-1.8.1-.2.1-.4.3-.5.4-.3.8-.8 1.3-1 .3-.1.7-.2.9-.5.2.1.3.2.5.3.2.1.4.1.5.1.7.1 1.2.6 1.6.9.2 0 .4 0 .5-.1.2-.2.5-.3.7-.4.3-.2.7-.5 1-.8.3-.2.3-.3.1-.6-.4-.5-1-.8-1.3-1.1 0 0-.1 0-.1-.1-.2-.1-.3-.1-.5-.2-.1-.1-.3 0-.4-.2-.5-.1-1.1-.3-1.5-.4h-.8c-.3 0-.5.1-.8.1-.4 0-.7.2-1.1.2-.5.1-.9.5-1.2.7-.3.2-.6.4-.9.7-.4.4-.8.8-1.1 1.2-.2.3-.3.6-.5.9-.2.3-.2.7-.3 1v.3c-.3.6-.1 1.1-.1 1.7 0 .4.2.9.3 1.2.1.2.2.5.3.7.2.3.4.8.7 1v.1c.3.5.7.7 1.1 1.1 0 0 .1 0 .1.1.5.1.8.6 1.2.6.3.3.6.2 1 .3.4.1.7.1 1.1.1.5 0 1 0 1.4-.2.1-.1.3 0 .3-.1.1-.1.2-.3.4-.2.1 0 .2-.1.2-.1.1-.2.3-.2.6-.2.1.1.1.3.2.4.1.1.2.3.4.2h.9c.2 0 .3-.1.5-.1.3 0 .5-.1.5-.4 0-.7-.1-1.4 0-2.2zm-2.7-6.9c-.1-.1-.2-.2-.2-.4.2.1.2.2.2.4zm-3.6-.4c.1 0 .1 0 0 0h.2c-.1 0-.1.1-.2 0-.1.1-.1.2-.2.2l.2-.2zm-2.8 6.5c-.2-.1-.1-.2 0-.3v.3zm1.8 1c0 .1-.1.1-.2.2l-.1-.1c.1 0 .2-.1.3-.1zm.5 1.1c-.2 0-.2 0-.1-.2 0 0 0 .1.1.2zm.6.3-.1-.2h.1v.2c0-.1 0-.1 0 0zm.4-.3c-.1-.1-.1-.2 0-.3h.1c-.1.2-.1.3-.1.3zm.2.4c0 .1 0 .1 0 0 0 .1 0 .1 0 0 0 .1 0 .1 0 0s.1-.2.2-.3v.1c0 .2-.1.2-.2.2zm.3.4c-.1-.1-.1-.2 0-.3h.1c0 .1 0 .2-.1.3zm.7-.5c-.2-.2-.5-.3-.7-.5-.1-.1-.2-.1 0-.3v.3h.2c.2.1.4.2.5.5zm.9 0h-.4v-.4h.1c-.1.3.1.3.3.4.1-.1 0 0 0 0zm.3-.2c-.2-.1-.2-.2 0-.4v.4zm-.1-1.6.3.3c-.2 0-.3-.1-.3-.3zm.4 1.5v-.4c.1.1.1.3 0 .4zm1.6-3.7c.1-.1.1-.2.1-.4.1 0 .1.1.1.3.1 0 .2.1.3.1h-.1c-.2-.1-.3 0-.3.2s-.1.4-.1.6v.3h-.1c-.2 0-.3-.1-.3-.3.1 0 .1-.1.2-.1.1-.2 0-.5.2-.7zm.6 1.4c0 .2 0 .3-.1.3h-.1c0-.1 0-.2.2-.3zm-.4-.2c-.1 0-.1-.1-.1-.2.1 0 .2.1.4.1-.1.1-.2.2-.3.1zm-.7.3c0-.1.1-.2.1-.2h.1c.1.1.2.1.3.1h.2v.1c-.1.1-.2.1-.3.2l.2-.2h-.6zm-.5.1c.1-.1.1-.2.2-.2.2 0 .3.1.4.3-.3 0-.4-.1-.6-.1zm.3-.5c0-.1 0-.1 0 0 .1-.1.1-.1.2-.1v.1h-.2zm.4-1.4.1.3h-.1v-.3zm0 .7s-.1.1-.1.2c0-.1-.1-.1-.1-.2v-.1c.1 0 .2 0 .2.1zm-.3-1c.1 0 .2 0 .3.1v.1h-.2c-.1-.1-.1-.1-.1-.2-.1 0-.1 0 0 0zm-.4.6c.1 0 .2 0 .3-.1.1-.1.1-.2.1-.3l.1.1c0 .1-.1.2-.1.3-.2.1-.3.1-.4 0zm-.1.2.1.2h-.1v-.2zm0-.9v.3h-.1l.1-.3zm-.2 3.6.2-.2.1.1c-.1.1-.1.1-.3.1.1.1 0 .1 0 0zm.4.7-.3-.3.1-.1c.1.1.2.1.2.4zm.4.3h-.4c.2-.1.3-.2.4-.2v.2zm.4-1.1v.2h-.1l.1-.2c-.1 0-.1 0 0 0zm-.1-.4v-.5c-.4.2-.4.6-.4.9v.2s-.1 0-.1.1c-.3-.1 0-.3-.1-.5h-.1s-.1 0-.1.1c-.1 0-.1 0-.2-.1.2 0 .3-.1.5-.1v-.4h-.4c0-.1.1-.2.1-.2 0-.1.1-.1.2-.1s.2-.1.3-.2c.2.2.3.3.4.5.2.1.1.1-.1.3zm.4.4c-.1-.2.1-.2.3-.2-.1.1-.2.2-.3.2zm.4-.7c-.2 0-.3 0-.4-.1l.1-.1c.1.1.2.1.3.2zm.2-1.1c-.5 0-.5-.1-.5-.4 0-.1 0-.2.1-.4.1 0 .2.1.2.2v.1c-.1.2-.2.4.2.5zm-54.1 1.3v-.2c.1-.2.1-.4 0-.6V44c0-.4.1-.7.1-1.1 0-.7 0-1.3-.1-2-.2 0-.4-.1-.6-.1-.3 0-.6-.1-.8 0-.1.1-.4-.1-.5 0-.2.1-.4.1-.5 0-.3 0-.6-.1-.9 0h-.6c-.3-.1-.6-.1-.9 0h-.2c-.3-.1-.6.1-.6.4v1.5c0 .4.1.5.5.5.6.1 1.2.1 1.8-.1.3.1.4.3.3.5-.2.3-.4.5-.6.8-.1 0-.3 0-.4.1-.4.2-.8.3-1.2.3s-.7.1-1-.1h-.2c-.3-.2-.7-.3-1-.5-.3-.2-.5-.5-.7-.8-.3-.4-.4-.8-.4-1.2 0-.6.1-1.2.4-1.8.1-.2.1-.4.3-.5.4-.3.8-.8 1.3-1 .3-.1.7-.2.9-.6.2.1.3.2.4.2.2.1.4.1.6.1.7.1 1.2.6 1.6.9.2 0 .4 0 .5-.1.2-.2.5-.3.7-.4.4-.2.7-.5 1-.8.2-.2.3-.3.1-.5-.2-.3-.5-.5-.8-.8-.2-.2-.4-.3-.6-.4-.1-.1-.2-.1-.3-.2-.3-.2-.6-.1-.9-.4-.5-.1-1.1-.3-1.5-.4H57c-.3 0-.5.2-.8.1-.7.2-1.3.2-1.9.7h-.1c-.7.2-1.1.7-1.5 1.1-.3.3-.6.7-.8 1.1-.2.4-.5.8-.5 1.2-.3.3-.1.7-.3 1-.1.1-.1.3 0 .4 0 .4 0 .9.1 1.2.1.4.2.9.3 1.2.1.4.5.7.6 1.1.1.3.4.6.7.8.4.4.9.8 1.4 1.1.3.1.5.2.8.4.2.1.3.2.6.2s.6.1.9.2c.3.1.6.1 1 .1.4-.1.9 0 1.2-.3.2.1.3-.1.4-.2 0 0 .1-.1.2-.1s.3-.1.3-.1c.2-.2.3-.2.5-.2 0 .1.1.1.1.2.1.4.4.5.8.5.4-.1.7-.1 1.1-.1.4 0 .5-.1.5-.4v-.6c0-.3-.1-.6-.1-.8-.3.2-.2-.1-.3-.4zm-2.9-7.2c.1 0 .1 0 0 0 .1.1.2.2.2.3h-.1l-.1-.3zm-.5.8h.2v.1c-.1 0-.1 0-.2.1.1-.1.1-.1 0-.2 0 .1 0 0 0 0zm-2.7-.8s.1 0 0 0c.1 0 .1 0 0 0 0 .1-.1.2-.1.2-.1-.2-.1-.2.1-.2zm-2.9 6.5s0-.1 0 0c-.1-.1 0-.2 0-.2h.1s0 .1-.1.2zm1.6 1.2v-.2h.1c0 .1 0 .1-.1.2zm.7.9h-.2v-.2c.1 0 .2.1.2.2zm.6.2c-.1 0-.1-.1-.2-.2h.1c.1.1.1.2.1.2zm.2-.1c-.1-.2-.1-.3.1-.4.1.2.1.3-.1.4zm.6.2-.2.2h-.1c0-.1.1-.2.3-.2-.1-.1-.1-.1 0 0-.1-.1-.1-.1 0 0-.1-.1-.1-.1 0 0zm.1.5v-.2s.1-.1.2-.1c-.1.1-.2.2-.2.3zm.6-.5c-.1-.1-.2-.1-.3-.2l-.3-.3c.4 0 .5.2.6.5zm.7 0v-.3c.1.1.2.2.4.3-.3.1-.4 0-.4 0zm.6-.1c-.4-.1-.3-.2-.1-.4 0 .1 0 .2.1.4zm0-1.4c-.1 0-.1-.1-.1-.2l.1.2c.1 0 0 0 0 0zm.3 1.2v-.4c.1.1.2.1.2.2-.1.1-.2.1-.2.2zm1.4-3.1c0-.2 0-.4.2-.5.1-.1.1-.3.2-.4.1 0 .1 0 .1.1s-.1.2 0 .2.2.1.3.1v.1h-.2c-.1 0-.2 0-.3.1 0 .2-.1.4-.1.6v.3c-.2 0-.3.1-.3-.1-.1-.2 0-.2.1-.3v-.2zm.4 1.1c.1-.1.2-.2.2-.3.2.3.1.4-.2.3zm-.4.1c0-.2.1-.2.1-.3-.2-.1-.4-.1-.5.1.1-.1.1-.2.2-.3.2.1.4.2.7.3-.2 0-.3.1-.5.2zm-.6-.8c.2 0 .2 0 .4-.1-.1.1-.1.1-.2.1 0 .1-.1 0-.2 0zm.6-.6h-.2c0-.1.1-.1.1-.2 0 .1.1.2.1.2zm.5.9c-.1 0-.2 0-.2-.1v-.1c.1 0 .2 0 .2.2zm-.6-1.6c.2.1.2.2.1.5-.1-.3-.1-.4-.1-.5zm-.2-.3c.1 0 .1.1.2.1v.1c-.1 0-.2 0-.2-.2-.1 0 0 0 0 0zm-.3.5c0-.1 0-.1.1-.2 0-.1 0-.1.1-.2.2.3 0 .4-.2.4 0 .1 0 0 0 0zm.3 1.7c-.2.1-.4.1-.6-.1.2-.2.4 0 .6.1zm-.6-1.4c0 .1 0 .1.1.2h-.1c0-.1-.1-.1 0-.2-.1 0 0 0 0 0zm-.2-.9.1.3h-.1v-.3zm0 3.6.2-.2s.1 0 .1.1c-.1.1-.2.1-.3.1 0 .1 0 .1 0 0zm.3.5h-.2l-.1-.1s0-.1.1-.1l.2.2zm.5.5h-.4c.1-.1.3-.2.4-.2v.2zm.3-.8c-.1-.1-.1-.2 0-.3h.1l-.1.3zm0-.7h-.2c-.2.1-.3.2-.2.4v.3c-.3-.1-.1-.3-.1-.5 0 0-.1 0-.2.1-.1 0-.1 0-.2-.1.2 0 .3-.1.5-.1 0-.1 0-.2.1-.4h-.4c.1-.2.1-.2.3-.3.1 0 .2-.1.3-.2.4.5.4.6.1.8zm.6.1s0 .1 0 0c-.1.2-.2.3-.4.2 0-.2.1-.2.4-.2-.1 0 0 0 0 0zm.1-.4c-.1 0-.2-.1-.4-.1.2 0 .3 0 .4.1zm0-1c-.1-.1-.2-.1-.4-.2 0-.2.1-.4.1-.6h.1c.1 0 .1.1.1.2s0 .3.1.4c0 0 .1.1 0 .2.1-.1.1-.1 0 0zm43.4-1.8v-5.1c0-.2-.3-.6-.5-.6h-.8c-.4 0-.8 0-1.2.1-.3 0-.4.1-.5.4 0 .1-.1.2 0 .3.1.9-.1 1.8.1 2.8v1.9c0 .2 0 .3.1.5-.1.1-.2.1-.3.2l-.3-.3c-.1.2-.1.4-.3.4-.1 0-.2.2-.1.3.1.2-.1.3-.2.4-.1-.1-.2-.2-.3-.4.2-.2.2.1.3.1.1-.3.2-.5.3-.8h.2c-.2-.3-.3-.6-.5-.8-.2-.2-.3-.4-.5-.6-.2-.2-.4-.4-.5-.6-.3-.4-.7-.8-1-1.2-.1-.2-.3-.3-.4-.5-.3-.6-.9-.9-1.2-1.4 0-.1-.2-.1-.2-.2-.2-.3-.3-.4-.7-.4h-1.6c-.3 0-.4.1-.5.4-.1.3-.1.6-.1.9 0 .6.1 1.1 0 1.7v.2c.1.4.1.4 0 .8v.3c0 .4 0 .9.1 1.2.1.5-.1.9.1 1.3.1.2 0 .4 0 .7 0 .2-.1.5 0 .7 0 .4.1.8 0 1.1v.2c.1.2 0 .5 0 .7.1.3 0 .5-.1.7l.3.6c.4-.1.7.1 1.1 0 .3.2.7.1 1.1.1.3 0 .5-.1.6-.4V44c0-.4-.1-.9-.1-1.3-.2 0-.3 0-.3-.2-.2.1-.4.1-.6.2 0-.2 0-.3.2-.3s.2-.2.3-.3h-.2c.1-.2.2-.3.4-.6-.4.1-.3.5-.6.6-.1-.1-.1-.3-.2-.3-.1-.1-.2 0-.3 0-.1-.2-.1-.3-.2-.4v-.1c.2.2.4.4.6.3.1-.1.1-.2.2-.3H96c.1-.2.2-.3.1-.6-.1 0-.2.1-.3.1-.2 0-.3 0-.3-.2-.1-.2-.1-.4-.1-.6.4 0 .1.3.3.4.2.1.3-.2.4-.2.3.1.3-.1.3-.3 0-.3.1-.3.3-.3v.4h.1c.1-.2.1-.5.2-.7.2 0 .2.6.6.1v.4h-.2s-.1 0-.2.1c.5.1.6.3.6.7h.2c.1-.1.1-.2.2-.3-.1-.1-.2-.3-.4-.3.1 0 .2-.1.3-.1.1-.1.1-.2.3-.1 0 .4-.1.7-.1 1-.2.1-.5.2-.7.3.1.2.1.2.3.1h.1c.1 0 .3-.1.4-.1v.2c-.1 0-.3-.1-.4-.1 0 .2.2.3.4.4 0 .1-.1.3-.2.2-.2-.1-.3-.1-.5 0l.2.2c0 .1-.1.2 0 .2.1.2.1.3.2.5 0 .1.1.1.2.2s.1.2.2.3.2.1.2.2c.2.2.4.5.5.8.1.1.2.1.2.1l.3.6c.2.2.4.4.5.6.2.5.8.7.9 1.1l.1.1c.4.3.5.8.9 1.1 0 0 0 .1.1.1.1.3.4.4.7.4h1.5c.2 0 .4 0 .5-.2.1-.2.1-.4.1-.6v-1.4c0-.5-.1-1 0-1.4s-.1-1 .1-1.5c-.3-.9-.4-1.1-.4-1.3zm-9.5-2s.1 0 0 0c.1.3 0 .3-.1.3 0-.2 0-.2.1-.3zm-.1 3.5c.2.2.2.2-.1.4.1-.2.1-.3.1-.4zm-.2 1.3c.2 0 .3-.2.4-.2 0 .1-.1.2-.2.3-.1 0-.1 0-.2-.1zm.4.4c.1-.1.1-.1.2-.1 0 0 .1 0 .1.1h-.3zm.3-.5c0-.2.1-.2.2-.2h.2c-.2.1-.3.1-.4.2zm.1-.7c.1-.1.1-.1 0 0 .1-.1.1-.1 0 0 .1 0 .2.1.2.1s-.1 0-.1.1c0-.1-.1-.1-.1-.2zm.7.8c-.2.1-.2.1-.2-.1 0 0 .1 0 .2.1zm-.3-.9c-.1-.1 0-.2 0-.3h.1c0 .2 0 .3-.1.3zm-.2-.9c0-.2 0-.4.3-.4-.1.2-.2.3-.3.4zm-.3-1.3h.3c.1.1.2.3.2.4-.2.1-.3-.3-.6-.1.1-.2.1-.3.1-.3zm.2 1.1c-.1.1-.1.2-.2.3-.1-.1-.1-.2-.2-.4.2.1.3.1.4.1zm-.1-3.5c-.1.1-.2.1-.3.2 0-.1.1-.2.1-.2h.2zm.5-.7.2.1v.1c-.1-.1-.2-.1-.2-.2zm-.3.1c0 .2 0 .2 0 0 0 .1 0 .1 0 0zm.2.9c0 .1-.1.1-.1.2-.2-.1-.4-.1-.4-.3.3.1.4.1.5.1zm.4-.5c-.1.1-.2.3-.4.4-.1-.3.1-.4.2-.6l.2.2zm0-1c0-.1 0-.1 0 0v-.2s.1 0 .3.1c-.1 0-.2.1-.3.1zm.3.9s-.1 0-.3.1c.1-.2.2-.3.2-.5h.1c.1.2.1.3 0 .4zm.5-.3.3.3c-.3 0-.4-.1-.3-.3zm.6 1s-.1 0 0 0c-.1 0-.1 0 0 0-.1 0-.1 0 0 0-.2 0-.3-.1-.2-.2 0 0 .1-.1.1 0 .1-.1.2 0 .1.2zm-.1-.5c-.1-.1-.1-.2 0-.2 0 0 .1 0 0 .2zm.4 2.8c-.1.1-.2 0-.2-.1 0 .1.1.1.2.1-.1 0-.1 0 0 0zm1.5-.3c-.1-.1-.2-.1-.3-.2.1-.1.2-.1.3.2zm-.7-1.2c.2.1.3.2.5.4h-.1c-.3-.1-.4-.2-.4-.4zm0 .6c-.2.1-.3-.2-.5-.1.1-.1.2-.1.5.1zm-.5-.6c.1.1.2.1.1.2l-.1.1v-.3zm-.1-.8c0 .1 0 .1 0 0 0 .2.2.3 0 .4 0-.1-.1-.2-.1-.2 0-.1 0-.1.1-.2zm-.2-.8c.1-.1.2-.1.2 0h-.2c.1 0 .1 0 0 0 .1 0 .1 0 0 0zm0 1.5c.1-.1.1-.2.2-.3v.1c.1.2 0 .2-.2.2zm.2 1s0-.1-.1-.2l.1-.1c.1 0 .2.1.3.2-.2.1-.2.1-.3.1zm1 1.1c-.2-.1-.4-.1-.6-.2.3-.1.6 0 .6-.4-.2 0-.3-.3-.5-.3-.1 0-.2 0-.2.1s.1.2.1.3c0 0-.1 0-.2.1-.1-.3 0-.6.2-.8h.2c0-.2.2-.2.4-.2l-.3.3c.1.2.3.3.4.5.2.4-.2.5-.1.6zm.2-.1c.1 0 .2.1.3.3-.1-.3-.2-.3-.3-.3zm.3.9c-.1 0-.1-.1-.1-.2.1.1.1.1.1.2zm0-1.4c0 .1 0 .2.1.3-.2 0-.2-.2-.3-.3h.2c0-.1-.1-.2 0-.2.1-.1.2 0 .3.1h.1c-.2 0-.3.1-.4.1zm.4 1.8c-.1-.1-.1-.1-.1-.2 0 0 0-.1.1-.1.1.1.1.1 0 .3.1 0 0 0 0 0zm.3.3c0-.2-.1-.3-.1-.4.1.1.1.1.1.2.1.1 0 .2 0 .2zm2.2-5.4c.2 0 .3.1.2.2 0 0-.1 0-.1.1 0-.1 0-.2-.1-.3zm-.3 3.7c-.1.1-.2.1-.3.2h-.1v-.1c.1 0 .2-.1.4-.1zm-.1.3c-.1.1-.2.2-.3.2l-.1-.1.1-.1c.1 0 .2-.1.3 0zm-.2-.7c0 .2-.1.2-.1.4-.1-.1-.1-.2-.1-.2.1-.1.1-.2.2-.2zm-.8 2.5c-.2-.1-.4-.2-.6-.2-.2-.1-.2-.2-.1-.3.1.1.2.2.3.2 0-.1.1-.2.1-.3.3.2.3.4.3.6zm.4-.4c-.1-.1-.1-.2-.3-.4.3.1.3.2.3.4zm.1.6h.5c-.2 0-.3.2-.5 0zm.5-.9c-.1 0-.1-.1-.2-.1-.2-.3-.2-.3-.5-.2-.2.1-.4 0-.5.2-.2 0-.3-.1-.5-.1v-.1c.1-.1.2-.1.3-.2 0-.1-.1-.1-.1-.2.1-.1.2-.1.4-.2 0 .1.1.2.1.3l.3-.3c.1 0 .1.1.1.1 0 .1-.1.2-.2.3v.1c.1 0 .1 0 .2.1 0-.1-.1-.3.2-.2v.4c.1 0 .2 0 .4.1l-.1.2c.2-.3.2-.2.1-.2zm.2-.7c-.1.1-.1.1 0 0-.1 0-.2 0-.3-.1l.1-.1c0 .1.1.2.2.2zm-.1-1s0-.1.1-.2c.1.1.2.2.3.2 0 0 .1 0 .1-.1s0-.2-.1-.3c-.1 0-.1-.1-.1-.1v-.2c.1.1.2.2.4.3.1.2.1.4.2.7-.5-.1-.7-.2-.9-.3zm.3 1c0-.1-.1-.2-.1-.3h.1c0 .1.1.2 0 .3 0-.1 0-.1 0 0zm.2-.1c.1-.2.3-.1.4-.1-.1 0-.2 0-.4.1zm.6-3.8h-.2l-.1-.1.1-.1c.1.1.2.1.2.2.1 0 0 0 0 0zm-77.8 7.1v-.9c0-.3-.2-.5-.5-.5-.5 0-1-.1-1.4 0-.7.1-1.2 0-1.9 0-.4 0-.8.1-1.2 0h-.4c-.2-.1-.4-.2-.6-.2.3-.3 0-.6.1-.8-.4 0-.2-.2-.2-.5l.3.3c.2-.2.3-.4.4-.5 0-.1 0-.2.1-.1h.2v-.1c-.1-.1-.2-.1-.3-.2.2-.1.3-.2.3-.2 0 .1-.1.1-.1.2.1.1.2.1.3.2v.5h.5c0-.2.1-.3.2-.4 0 .2-.1.4.2.4h2.4c.3 0 .4-.1.5-.4 0 0 0-.1.1-.1.1-.1.1-.2 0-.3-.2-.3 0-.6-.1-.9V41c0-.3-.3-.5-.5-.5h-3.4c0 .1.1.2.1.4-.2-.2-.4-.2-.4-.4-.2-.1-.3-.1-.5-.1-.1-.3-.1-.5-.2-.8-.1.1-.1.2-.2.3 0-.3 0-.4.3-.4 0-.1 0-.3-.1-.4.2-.2.4-.2.6-.2h1.2c.9 0 1.7.1 2.6 0h.3c.3 0 .6-.1.9-.1l.1-.1c0-.3.2-.5-.1-.8.3-.5.2-1 .2-1.4 0-.3-.2-.4-.4-.4H22c-.4 0-.8.1-1.2 0h-.4c-.4 0-.7-.1-1.1-.1h-1.9c-.4 0-.4 0-.5.4-.1.5-.1 1-.1 1.3 0 .3-.2.7.1 1v.1c-.1.5-.1 1.1 0 1.5v.3c0 .2-.1.5-.1.7v1.5c0 .5-.1 1.1 0 1.5v.1c.2.3.3.8.3 1.2 0 .1.1.3 0 .4-.1.2.1.3.1.4-.2.2-.2.5-.1.8.1.2.3.3.6.3.4 0 .7-.1 1.1-.1.5 0 1.1.1 1.5.1h4.9c.4 0 .6-.2.6-.6v-.4c.1.1 0-.1 0-.4zm-5.2-7.9c.2 0 .3.1.3.3l-.3-.3zm0 7c.1 0 .2.1.2.1v.1c-.1 0-.2 0-.2-.2zm-.7.1h-.4c0-.2.1-.3.2-.3s.1.1.2.3zm-.5-1.6c.1 0 .1-.1.2-.1h.1v.2c0 .1-.1.1-.1.1l-.2-.2zm.4 1.1c0-.1-.1-.1-.2-.2.1 0 .2.1.2.2zm1.3-3.2c-.1 0-.2.1-.3.1v-.1c.1-.1.1-.1.3 0zm-.1.5c.1 0 .1-.1.2-.1 0 .1.1.2.2.4-.2 0-.4-.1-.6-.1 0 .1 0 .2.1.3-.1-.1-.2-.1-.2-.2-.1.1-.1.4-.4.2.1-.3.3-.6.7-.5zm-.9-1c.1 0 .2-.1.3-.1 0 .2.1.4.1.6h-.1c0-.1-.1-.2-.1-.4l-.2-.1zm.2.9c-.2.1-.2.2-.3.3 0 .1 0 .1.1.3.1.2.1.3.1.5-.3.2-.6.4-1 .6h-.4c.1-.1.2-.2.2-.3-.2-.1-.3-.2-.3-.4v-.6c.1 0 .3-.1.5-.1 0-.2-.1-.3-.1-.6.2.2.3.3.5.4v-.2c0-.2 0-.3.3-.3-.2-.1-.4-.2-.4-.6.2.1.4.2.5.4v.6c0-.1.1 0 .3 0zm-.3-1.1c-.1 0-.1-.1-.2-.1.2-.1.2-.1.2.1zm-.4-2.3c.1 0 .1 0 .2.1l-.2-.1c-.1 0 0 0 0 0zm-.2.1c.1 0 .1 0 0 0 .1 0 .1 0 0 0 .1 0 .1 0 0 0 .1 0 .1 0 0 0 .1 0 .1.1 0 0 .1.1 0 .1 0 .2h-.1c0-.1.1-.1.1-.2zm-.2 1.5c0-.1.1-.2.1-.2h.1c-.1 0-.1.1-.2.2zm0 .1c.1.2.2.3.3.4-.1.1-.3.2-.4.3-.2-.3.1-.4.1-.7zm-.4 1.6c0 .1 0 .1.1.3-.1 0-.1-.1-.2-.1l.1-.2v-.4c.1.2.1.3 0 .4zm-.3.1c0 .1 0 .3-.1.4-.1-.1-.1-.2-.1-.2 0-.1.1-.2.2-.2zm0-.8v-.3h.2c.1.1.1.2.1.2 0 .1-.1.1-.3.1.1.1.1.1 0 0 0 .1.1.2.1.3h-.2l-.1-.1c.1 0 .2-.1.2-.2zm0 2c.2 0 .3.1.2.3-.1-.1-.2-.2-.2-.3zm.1-2.9c0-.1 0-.1-.1-.2.1 0 .1 0 .1.2.1-.1.1 0 .2.1-.1-.1-.2-.1-.2-.1zm.2-.9c0 .1 0 .2-.1.3v-.1c0-.1 0-.2.1-.2zm-.3-.5c0 .1.1.2.2.4-.3-.1-.2-.2-.2-.4-.1 0 0 0 0 0zm-.2 1.7h.2c.1 0 .2.1.3.3l-.2-.2c-.1-.1-.2-.1-.3-.1zm-.4-.7.3-.1v.1h-.3zm.4.9s.1.1.1.2c-.1-.1-.2-.1-.3-.2h.2zm.1 4.6c-.1-.1-.1-.2-.2-.3.1 0 .1 0 .1.1.1.1.1.1.1.2zm.1.4h-.3v-.1l.3.1zm.4-.6c-.1 0-.2-.1-.2-.2l.1-.1c.2-.1.1-.2.1-.4.1.3.1.5 0 .7zm.2-.9c.1 0 .1 0 0 0 .1-.1.1-.1 0 0 .1-.1.1-.1 0 0l.2-.2c-.2-.1-.5-.1-.7-.3-.1 0-.2.1-.4.1l.2-.2c.1-.1.3-.1.4 0 .2.1.4.3.5.5v.3c-.1-.1-.2-.1-.2-.2zm.5 2c-.1.1-.2.3-.4.4v-.1c0-.1 0-.2.1-.2.1-.1.1-.3.3-.1zm-.1-.4c-.1 0-.1-.1 0 0v-.2s.1.1.2.1c-.1.1-.2.2-.2.1zm.4-.3c.1.1.1.1.1.2h-.1v-.2zm.1 1.2c-.1-.1-.1-.2 0-.2s.1 0 .2.1v.1H20zm.9-.3c0-.1-.1-.2-.1-.3.1.1.2.2.1.3zm.2-.4c-.1 0-.2 0-.2-.1-.1-.1-.2-.1-.2-.1-.1 0-.1.1-.2.3-.1-.1-.2-.1-.3-.2.2 0 .3-.2.5-.3.1 0 .1 0 .2.1 0 .1.1.2.2.3 0-.1.1-.2.1-.2l.1.1c0 .1-.1.1-.2.1zM36 43.8c-.1-.4-.3-.8-.5-1.1-.2-.3-.5-.5-.7-.7-.3-.3-.7-.5-1-.7-.5-.3-1.1-.5-1.5-.7-.1 0-.2-.1-.3 0-.1.1-.1.1-.2-.1 0-.1-.1-.1-.1-.1-.1 0-.1.1-.2.1l-.3-.3c-.1-.1-.3-.1-.4-.1-.2 0-.3-.1-.4-.2-.1-.2-.3-.4-.4-.4v-.1l.1-.1-.1-.2c.2 0 .4.1.4-.1s.2-.2.3-.2c.4 0 .8-.1 1.1-.1.2.1.3.2.5.2.4.1.6.3.8.7.1.2.2.5.6.5h.9c.3 0 .5-.1.8 0 .2 0 .4 0 .6-.1.1 0 .2-.1.2-.1 0-.2.1-.4.1-.6-.1-.3-.2-.7-.3-1-.1-.2-.3-.4-.4-.7-.1-.2-.4-.4-.6-.6-.3-.2-.6-.4-.9-.5-.3-.1-.6-.3-.9-.4-.5-.1-1-.1-1.3-.2h-.1c-.1.1-.1.1-.2 0H31c-.1 0-.3.1-.4.1-.3.1-.6.1-.9.2-.3.1-.6.4-.9.5l-.1.1c-.3-.1-.3.2-.3.4-.2-.1-.2.1-.3.2-.3.3-.5.6-.7 1-.1.4-.3.7-.2 1.1 0 .2.1.5 0 .7-.1.2 0 .4.1.5.1.4.4.6.6 1 .2.3.5.5.8.7.3.2.6.3.9.5l.4.1c.6.3 1.2.4 1.8.7.2.1.3 0 .4-.1.1 0 .1-.1.1-.1h.1c0 .1-.1.2-.1.3l.6.3c.4.2.3.9 0 1.1-.3.1-.6.3-.9.2-.2 0-.4 0-.5.1-.1-.1-.1-.2-.2-.2-.1-.1-.3-.1-.4-.1-.2 0-.4-.1-.6-.3l-.3-.5c-.2-.2-.4-.3-.6-.3h-1.9c-.1 0-.1.1-.2.1-.5.3-.5.5-.5.7.1.5.2.9.5 1.2.2.3.4.5.7.7.2.2.3.3.6.4.2.1.3.3.6.3h.1c.3.1.5.1.8.2.3.1.6 0 .9.2h.6c.1 0 .2.1.4.1.3 0 .6-.1.9-.1.3-.1.7-.1 1-.2.3-.1.6-.2.8-.4.3-.1.5-.3.8-.5.3-.2.2-.6.6-.6v-.1c.2-.4.4-.9.4-1.3-.4-.3-.4-.7-.5-1zm-6-6.4v.4h-.1c.1-.2.1-.3.1-.4zm-.7.3s0 .1 0 0c0 .1 0 .1 0 0 0 .1 0 .1 0 0 0 .1 0 .1 0 0 0 .1 0 .1 0 0 0 .1-.1.1-.1.2l.1-.2c-.1.1-.1 0 0 0zm-.2 1.7c.1 0 .1.1.2.1 0 0 0 .1-.1.1-.1-.1-.1-.1-.1-.2-.1 0-.1 0 0 0-.1 0-.1 0 0 0zm-.3-1.6v.2s0 .1-.1.1v.1-.1c0-.2 0-.2.1-.3zm-.3.7c0-.1.1-.1.1-.2.1.1.2.1.4.2-.2.1-.3.1-.3.1-.1.1-.1.2-.1.3-.1 0-.1-.1-.2-.1 0-.2.1-.3.1-.3zm-.1.4c.1 0 .1 0 0 0 .1 0 .1 0 0 0 .1 0 .1 0 0 0 .1.1.1.2.1.2s-.1.1-.2.1c.1-.1.1-.2.1-.3zm-.1-.9c0 .1-.1.2-.2.3.1-.1.1-.2.2-.3zm-.4.7c.1.1.2.1.3.2-.2 0-.3 0-.3-.2zm0 .7v-.3l.3.3h-.3zm.4 1.5c0-.1-.1-.1-.1-.2h.1v.2c.1-.1.1-.1 0 0 .1-.1 0 0 0 0zm.2-.7V40h.1c.1.1.1.1.1.2 0-.1-.1 0-.2 0zm.3-.5c-.2.1-.3 0-.3-.2h.2s.1.1.1.2zm.4 1.3v-.3h.1c0 .1.1.2-.1.3zm.1-.5-.1-.2h.1v.2zm.3-.6c-.2 0-.4.1-.6.2 0-.2.2-.3.6-.5v.3zm.2-1.3c-.1 0-.1 0 0 0-.1 0-.1 0 0 0-.1 0-.1 0 0 0-.1 0-.1 0 0 0v-.2h.1c0 .1-.1.1-.1.2zm2.8 3.3c.1 0 0 0 0 0 0 .1.1.1.1.2h-.1v-.2zm-.2.4c-.1.1-.2.1-.2 0v-.1c.1 0 .2.1.2.1zm-.4-1.1c.1 0 .2-.1.3-.1 0 .1-.1.2-.1.2-.1 0-.2 0-.2-.1zm-2 .4s0-.1 0 0c0-.2.1-.2.1-.2s.1 0 .2.1c-.1.1-.2.1-.3.1zm.7-.3c-.1.1-.2 0-.3-.1l.3.1c.1 0 .1 0 0 0zm.4.5c-.1.2-.2.3-.3.5v-.5h.3zm.4.7c0-.1 0-.2.2-.3-.1.1-.2.2-.2.3zm.4.3h-.2c0-.3.1-.4.1-.7.3.3.1.5.1.7zm-.1-1.2c-.1-.1-.2-.1-.2 0-.1 0-.1.1-.1.2h.3c0 .1-.1.1-.1.2h-.3c0-.1.1-.1.1-.2-.2-.1-.3-.1-.5-.2.2-.1.5-.2.7-.2.1 0 .1 0 .1.2.2 0 .5 0 .4.3-.2-.1-.3-.2-.4-.3zm.7 1.1H32c.2-.2.4-.2.5 0l-.1-.2c.1-.1.2-.2.3-.2 0 .2-.1.3-.2.4zm.3.7c-.1-.2-.2-.4 0-.6.1.1.3.1.4.2-.1 0-.3.1-.4.1v.3zm.5 2.5h-.2s-.1-.1 0-.1l.1-.1s.1.1.1.2zm-.2-2.3c.1 0 .2 0 .3.1l-.1.1-.2-.2zm.4 1.2c0-.2-.1-.2-.1-.4.2.2.2.2.1.4zm.4-1.2-.2-.2s0-.1.1-.1c0 .1 0 .1.1.3zm.1 1-.1-.3c.1.1.1.2.1.3zm.3 1c0-.1-.1-.1-.1-.2h.1v.2zm-.3-1.8.2-.2c.1 0 .1.1.3.2H34zm.7 1.4c0 .1-.1.1-.1.2h-.1c0-.1 0-.2.2-.2-.1-.1-.1-.1 0 0zm-.1-.3s-.1-.1-.2-.1l.1-.1c.2 0 .2.1.1.2.1 0 .1 0 0 0 .1 0 .1 0 0 0zm39.8 1.7c-.1-.5-.4-.9-.6-1.3-.2-.4-.3-.9-.5-1.2-.2-.4-.5-.7-.5-1.1 0-.1 0-.1-.1-.2-.3-.5-.5-1.1-.7-1.6-.1-.3-.1-.6-.4-.7V40c-.2-.4-.3-.8-.5-1.1-.1-.4-.1-.9-.5-1.2 0-.4-.2-.7-.3-1-.1-.3-.3-.5-.6-.5h-1.8c-.5-.1-.8.1-1.1.6-.2.4-.3.9-.5 1.3s-.3.8-.5 1.1c-.2.4-.4.9-.5 1.2-.3.7-.5 1.3-.8 1.9-.1.2-.2.4-.2.7v.2c-.3.5-.4 1-.6 1.4-.1.2-.3.4-.2.6-.2.1 0 .2-.1.4-.3 0-.3.3-.4.5v1c-.1.2-.1.4 0 .6h2.3c.3 0 .8-.2.8-.5s.3-.5.4-.9c.1-.3.3-.4.6-.4s.6-.1.9 0c.4-.1.9-.1 1.2 0h.2c.4-.1.8 0 1.1 0 .3 0 .4.2.5.5 0 .2.1.3.2.5.2.6.4.7 1 .7h.2c.3.1.5 0 .8 0h.1c.5.2.9 0 1.3-.1.2-.4-.1-.6-.2-.9zm-9-1.3s0-.1 0 0c0-.1 0-.1 0 0-.1-.1 0-.2 0-.2h.1c-.1.1-.1.1-.1.2zm7-1.2c0 .1 0 .1 0 0h-.2V44c.1.1.1.1.2.1zm-1-2.7s.1 0 0 0c.1.1.1.2.1.2h-.1v-.2zm-.2 2.2c0-.1 0-.1 0 0 .1-.1.1-.1.1-.2.1-.2.1-.2-.1-.3 0 0-.1 0-.1-.1.4 0 .5.1.5.4 0 .1-.1.2-.1.4-.3-.1-.4-.2-.3-.2zm.1-1.5v.4c-.2-.2-.2-.3 0-.4zm-.3-.5s.1 0 0 0c0 .1 0 .2-.1.2h-.1c.1-.2.1-.2.2-.2zm-.2.7c0 .1 0 .1 0 0 .2.1.4.1.4.3v.1c-.4-.2-.4-.2-.4-.4zm-.1-.3c-.1-.1-.2-.1-.3-.2.1 0 .2 0 .3.2zm-.7-1.6c.2.2.4.2.6.4 0 .2-.1.3-.1.5h-.1V41c0-.1-.1-.2-.1-.2-.2 0-.2-.3-.3-.4zm0 1c.1 0 .1.1 0 0 0 .1 0 .1 0 0zm0 .4s.1-.1.2-.1v.2c-.1.2-.3.1-.4 0 .1 0 .2-.1.2-.1zm-.4-2.7c.1-.2.1-.4.1-.5.1.1.1.1.1.2s-.1.2-.2.3zm.2 2v.2h-.3v-.1c.1 0 .1-.1.3-.1zm-.3-1c0 .1 0 .2-.1.3l-.1-.2s.1-.1.2-.1zm-.9-.3c.1.1.3.1.4.4-.3-.2-.4-.2-.4-.4zm-.2-.7c.1 0 .1 0 0 0 .1.1.1.2 0 .2h-.1c.1-.1.1-.1.1-.2zm0 1 .1.2h-.1v-.2zm-.3.4c0-.2-.1-.3-.1-.3s.1 0 .1-.1c.1 0 .1.1.1.1 0 .1 0 .2-.1.3zm.1-.8h-.3c.1-.2.2-.2.3 0zm-.8.3c.2 0 .4-.1.7-.2v.2h-.7zm.3.4c-.2.2-.3.1-.4-.1.3.1.4.1.4.1zm-.7 4c0-.2.1-.4.1-.5h.4l-.1.1c-.1.2-.2.3-.4.4.1 0 0 0 0 0zm-.3-.7h.3c0 .1 0 .1-.1.1 0 .1-.1 0-.2-.1zm.4-2.6h.2v.3c-.1-.2-.1-.2-.2-.3zm.3 2.4c0 .1 0 .2-.1.2h-.1c0-.1.1-.2.2-.2-.1 0 0 0 0 0zm-.1-.3c-.1 0-.1.1-.2.1l-.1-.1c.1-.1.2-.1.3 0zm0-2.7v.3c-.1-.1-.2-.1-.3-.1v-.1c.2 0 .3-.1.3-.1zm-.2-.5s.1 0 0 0v.2s-.1 0 0-.2c0 .1 0 .1 0 0zm-.8 2.9c.1 0 .1-.1.2-.1s.2-.1.3 0c.1.1.2.1.4.1-.1 0-.2.1-.3.1-.2.1-.3.1-.4.1l-.2-.2c.1 0 0 0 0 0v.3c-.1-.1-.1-.2 0-.3zm.2 1.2c-.1 0-.1-.1-.2-.1l.1-.1c.1 0 .1.1.1.2 0-.1 0 0 0 0zm-.6-.6c0-.1.1-.1.1-.2l.1.1s-.1.1-.2.1c.1 0 0 0 0 0zm-.1.3c-.1.1-.1.1 0 0l-.1-.2c.1 0 .1.1.1.2zm.1.5h.3c-.1.1-.2.2-.3 0zm.3.8c-.1.1-.1.1-.3 0h.3s0-.1 0 0zm0-.1s0 .1 0 0-.1-.2-.1-.3c.3-.1.2.2.4.3-.1.1-.2.1-.3 0zm.9-.1c-.1 0-.2 0-.3-.1h-.2s-.1-.1-.1-.2v-.1l.3-.6c0 .1.1.2.1.2 0 .2-.2.3-.2.5l.1.1h.1c0-.1 0-.1.1-.3 0 .3 0 .4.1.5zm.4-.2c-.1.1-.2 0-.3-.1.1 0 .2 0 .3.1zm.1-1s.1 0 0 0c.1 0 .1 0 0 0 .2.1.3.3.4.4h-.5c0-.1.1-.2.1-.4zm.4.9c-.1 0-.1.1-.2.1s-.1.1-.2.1v-.1c0-.1.1-.1.1-.2l-.3-.3c.1-.1.2-.1.3-.1.2.3.2.4.3.5zm.3-.5c-.1 0-.1 0 0 0-.1 0-.1 0 0 0 .1-.1.2-.2.3-.4v.1c-.1.2-.2.3-.3.3zm.3.5s0-.1 0 0c0-.1 0-.1 0 0 0-.1 0-.1 0 0 0-.1 0-.1 0 0 0-.1 0-.1 0 0 0-.1.1-.2.1-.2s0 .1.1.1c-.1 0-.1.1-.2.1zm.1-1v-.3c-.2-.1-.3-.1-.5 0-.1 0-.2.1-.2 0-.2-.2-.5-.4-.4-.8.1 0 .2 0 .3-.1 0-.1-.1-.2-.1-.3.1-.1.2-.1.3-.3.1-.2.2-.5.2-.7V41c0-.1.1-.3.1-.4.1-.2.2-.3.3-.4.1.2.3.3.4.6 0 .1.1.1.1.2v.3s0 .1.1.1c.3.1.2.5.5.6.1 0 .1.1.1.2.1-.1.3-.1.4-.2v.1c-.2.2-.4.5-.6.7.1.1.1.2.2.3-.2.2-.4.3-.7.5 0 0-.1-.1-.1-.2-.1.1-.1.3-.4.2zm.5 1.3c0-.1.1-.1.2-.1v.1h-.2zm.4.2.2-.3c0 .2-.1.3-.2.3zm.5-.3c.3-.1.5-.2.4-.5-.1.3-.6.1-.7.4 0-.3.2-.5 0-.8-.1.1-.2.3-.2.5v.2h-.5c.2-.1.4-.3.4-.5s.2-.3.2-.4v-.2c.1-.1.2 0 .2.1v.2c0 .1.1.2.1.3v.2s.1.1.1.3c.1-.2.1-.2.1-.3.5 0 .5 0 .5.5v.3c-.2-.2-.4-.2-.6-.3zm.7.6-.1-.3h.1v.3zm-.6-1.4c0-.2 0-.5.1-.7-.1-.2-.2-.3-.3-.5.1-.1.2-.1.3-.1.2-.1.3 0 .4.1h-.4v.1c.1 0 .2.1.3.1 0 .1 0 .1-.1.3h.1c.1 0 .1-.1.2-.1h.1c.1.1.1.2.2.3h-.4c-.1.1-.2.2-.3.4l.3.3h.1v-.3c0-.1.1-.1.2-.2.1.1.2.2.2.3.2.1.5 0 .5.4-.2-.1-.4-.1-.6-.2.3.3.2.6.2.9-.3-.2-.3-.3-.3-.6-.3-.3-.5-.4-.8-.5zm1.1 1.2c-.2.1-.2-.1-.2-.1s-.1-.1-.2-.1c.3-.1.4 0 .4.2zm0-.8h.3v.1c-.1 0-.1.1-.2.1-.1-.1-.1-.1-.1-.2zm.5 1.8c0-.2-.1-.3-.1-.4.1 0 .1 0 .2.1 0 .1 0 .2-.1.3zm.3-1h-.2c.1-.2.1-.3.2-.4-.1 0-.2-.1-.2-.1-.1 0-.1.1-.1.2 0 .2 0 .4-.1.6-.2-.4-.2-.6.1-1h.3c.1.3 0 .5 0 .7zm.3-.2c0 .1 0 .1 0 0 0 .1 0 .1 0 0-.1.1-.2.1-.2.1.1-.1.1-.2.2-.3v.2zm.1-.4-.9-.3c.1-.3.1-.6-.2-.7.3 0 .5-.1.7-.1v.1H72v.2c0 .2.1.4.3.5s.2.2.2.3zm-26.2-8.3c-.2-.1-.3 0-.4 0-.6 0-1.1 0-1.6-.1h-1.9c-.3 0-.6.1-.9 0h-.8c-.5 0-1-.1-1.4 0h-1.1c-.2 0-.3-.1-.5-.1H37c-.2 0-.3.1-.4.3-.1.1-.1.3-.1.4 0 .2.1.3 0 .5-.1.4 0 .7 0 1.1 0 .1 0 .3.1.3.2.1-.1.2.1.3.2.1.5.2.8.1.3 0 .6-.1.9 0h1.3c.1 0 .1-.1.2-.1.1.1.2.1.4.2.1.1.1.3.2.5-.2 0-.2.2-.2.4v1c0 .2 0 .4.1.6.1.1 0 .4 0 .6 0 .1 0 .1.1.2v.2c-.1.4-.2.7 0 1.1v.1c0 .8-.1 1.5-.1 2.4v.9c0 .2 0 .5.1.7 0 .1.1.2.2.2.3 0 .7.1 1 .1.1 0 .2-.1.2-.1.4.2.7 0 1.1 0 .3 0 .4-.1.4-.4v-2.4c0-.5 0-.9.1-1.3v-2.3c.1-.3-.2-.5 0-.7-.2-.3 0-.6 0-.9 0-.1.1-.2.1-.3.4-.3.9-.2 1.2-.2h1c.3.2.7.1 1-.1 0-.1 0-.2.1-.3 0-.1.1-.3.1-.4v-1.4c-.4-.9-.5-1-.7-1.1zm-8.6 1.4c-.1-.1-.1-.2 0-.3l.1.1-.1.2zm1.1-.1c0-.2-.3-.2-.2-.4.1.1.2.2.2.4 0-.1 0 0 0 0zm.8-.2v.2h-.1c0-.1 0-.2.1-.2-.1 0-.1 0 0 0-.1 0-.1 0 0 0-.1 0 0 0 0 0zm.2 1c-.1-.1-.1-.3 0-.4v-.1.5zm.3-1.3v.5h-.2c0-.2 0-.3.2-.5-.1 0-.1 0 0 0-.1 0-.1 0 0 0-.1 0-.1 0 0 0zm1.9 1.5c.1.1.1.2.2.2l-.1.1c-.1-.1-.2-.1-.4-.2.1 0 .2-.1.3-.1zm-.2-1c.1.2.1.3 0 .3h-.2c.2-.2.2-.2.2-.3zm0 1.6.2.2c-.1.1-.1.2-.2.3h-.1v-.1c0-.1 0-.2.1-.4zm-.2.6h.4c-.1.1-.2.1-.3.2-.1 0-.1 0-.1-.2zm.2-1c-.1 0-.1 0 0 0 0 .1-.1.2-.1.3-.1-.1-.2-.1-.2-.2v-.1h.3zm-.7-.2c.2.2.2.4 0 .6-.1 0-.2-.1-.2-.1.1-.2.2-.4.2-.5zm0 1.4h.3-.3c.1 0 0 0 0 0zm.3-.8c.1.1.1.3.1.5-.2-.1-.2-.2-.1-.5zm-.2-.8c.2-.1.4-.1.5 0v.1c-.1-.1-.3-.1-.5-.1zm.4-1.2s0 .1 0 0c.1.1.1.1 0 0v.2-.2c-.1.1 0 .1 0 0zm0 .7c.1.1.1.1 0 0l-.3.1c.1-.1.2-.1.3-.1zm-.3-1c0 .1.1.1.1.2h-.1v-.2c-.1 0-.1 0 0 0zm-.1.9v.4l-.1.1c-.1-.1-.2-.2-.4-.3.2-.1.2-.1.3-.1 0-.1-.1-.2-.1-.3h.1c.1.1.2.1.2.2zm-.8 1c-.1 0-.1-.1-.2-.1 0 0 0-.1.1-.1 0 .1.1.1.1.2zm.1-1.6c0-.1-.1-.2-.1-.3.1 0 .2.1.2.1-.1.1-.1.2-.1.2zm.2 0s.1-.1.2-.1c.1.1.1.2.2.3-.2-.1-.3-.1-.4-.2zm.1 1.7c-.1 0-.1.1 0 0-.1.1-.1.1 0 0-.1-.1-.1-.1-.1-.2h.1v.2zm.1 7c-.1 0-.1 0 0 0-.1 0-.1 0 0 0l-.1-.2h.1v.2zm0-1.5.2-.1v.1h-.2zm.2.9c0-.1-.1-.1 0 0v-.2.2c.1-.1 0 0 0 0zm.3-4.8H41l.1-.1c.2-.1.2.1.3.1zm.1 6.3s-.1 0 0 0c-.1-.1-.1-.1-.1-.2h.1v.2c0-.1 0-.1 0 0 0-.1 0-.1 0 0zm.3-6c-.1 0-.2-.1-.3-.1l.3.1zm0-.3v-.3c.1 0 .1.1.1.1 0 .1 0 .2-.1.2zm0-1.3c0-.1.1-.1.1-.2l-.1.2c.2 0 .3-.1.4 0 .1 0 .1.1.1.2l-.1-.1c-.2-.1-.4-.1-.4-.1zm.5 7.2s-.1 0 0 0c-.1-.1-.1-.1-.1-.2h.1v.2zm.2-6.8c-.1 0-.1 0-.2-.1v-.2s.1-.1.2-.1c.1.2 0 .3 0 .4zm.1-.6c-.1-.1-.1-.2 0-.2h.1c0 .1 0 .1-.1.2.1 0 0 0 0 0zm.3-.6c-.1 0-.2-.1-.2-.3l-.1.1s-.1 0-.1-.1v-.2h.2l.1.1c-.1.2 0 .3.1.4zm.2-.7c0 .1-.1.3-.1.4-.2-.3-.1-.4.1-.4.1-.1 0 0 0 0zm.4-.6s0-.1 0 0h.2-.2zm.3.9c-.1-.1-.2-.1-.2-.1.1-.1.2-.3.3-.4 0 .2-.1.4-.1.5zm1 0c0-.1-.1-.1 0 0v-.2c.1 0 .1.1 0 .2.1-.1.1 0 0 0zm.5.1c-.1 0-.1 0 0 0-.1-.1-.1-.2-.1-.4h.1v.4zm47.3 8.7v-4c0-.4-.1-.8 0-1.1v-.3c-.1-.2 0-.4 0-.6.1-.3.1-.6-.1-.9-.2.1-.4.1-.6.1 0 .3.2.3.6.3-.1.1-.2.1-.2.1-.1 0-.3-.1-.4-.2-.2-.2 0-.4.2-.5.1 0 .1 0 .2.1l.3-.3v-.4c0-.1.1-.2.1-.3 0-.4-.1-.9 0-1.2v-.9c0-.3-.3-.7-.6-.6-.5.1-1.1 0-1.5 0h-.4c-.3 0-.5.2-.5.6v.5c0 .4-.1.8 0 1.1v1c0 .2.1.5.1.8.1-.1.2-.1.3-.2.1.2.1.3-.1.4l.1.1c0 .1-.1.2-.1.3-.1.2-.1.4-.2.6-.1.3 0 .5 0 .8-.1.8 0 1.6-.1 2.4 0 .7-.1 1.3.1 1.9v.1c-.1.2 0 .5 0 .7.1.4.2.4.6.4.5 0 1.1.1 1.5.1.2 0 .3 0 .5-.1.2-.3.4-.5.2-.8zm-.9-6.8s-.1 0 0 0c-.1-.2-.3-.3-.3-.4v-.1c.2.1.3.2.6.3-.2.1-.2.1-.3.2zm.1 1.4h-.2s-.1-.1-.1-.2h.1l.2.2zm-.6-2.5c.1 0 .3 0 .2.3-.2-.1-.2-.1-.2-.3zm.1 1c0 .1 0 .2-.1.2V40l.1-.1zm1-.2c-.2 0-.4-.1-.5-.1v-.1h.3c.1 0 .1 0 .2.2.1-.1.1 0 0 0zm-.3-2.3c.1 0 .2 0 .4.1-.1.1-.1.1-.2.1l-.2-.2zm.1.5s0 .1 0 0v.4l-.3-.3c.1.1.2 0 .3-.1zm-.4.5.2.2c-.1 0-.1.1-.2.1v-.3zm-.3-.5c.1 0 .1-.1.2-.1v.1c0 .1-.1.1-.2 0 0 .1 0 0 0 0zm-.8.8c.3-.2.6-.3.9-.5 0 .1 0 .1-.1.2s0 .2 0 .3c-.2-.1-.4-.1-.5.1-.1 0-.1 0-.3-.1zm.3.5s0 .1 0 0c-.2 0-.2 0-.2-.1 0 0 .1 0 .1-.1.1.1.1.2.1.2zm-.4-.6s.1 0 0 0c.1 0 .1 0 0 0 .1 0 .1 0 0 0 .1 0 .1 0 0 0 .1.1.1.1.1.2v.1c-.1 0-.2-.1-.2-.1.1-.1.1-.1.1-.2zm-.1.7v.2-.2c-.1.1-.1 0 0 0zm0 1.8c-.1 0-.1 0 0 0-.1 0-.2-.1-.2-.2h.1l.1.2zm.2-1.1c-.1-.1-.2-.2-.4-.3.2 0 .3 0 .4-.1v-.1c.1 0 .2.1.3.1v-.3h.1c.1.2-.1.2-.2.3 0 .1.1.2.1.3-.2-.2-.3-.3-.4-.1.2.1.2.2.1.2zm.2.7v.3h-.1c-.1-.2-.1-.2.1-.3zm.1 1.1h-.2v-.1l.2.1zm.3 0c-.1-.1-.2-.2-.2-.3.2 0 .3.1.2.3zm.1.2c-.1.2-.2.2-.3.1V42h.3zm0-1.2h.3v.1c-.2.1-.3.1-.3-.1zm.3 3.8s-.1-.1 0 0v-.2.2c.1-.1 0-.1 0 0zm.2.9c-.1-.1-.1-.1-.2-.1 0-.1.1-.1.1-.2h.1v.3zm.3-4.1c0-.1-.1-.2-.1-.3.1 0 .1.1.1.1v.2z" class="st0"/></svg>